<?xml version="1.0" standalone="no"?>
<!DOCTYPE svg PUBLIC "-//W3C//DTD SVG 20010904//EN"
 "http://www.w3.org/TR/2001/REC-SVG-20010904/DTD/svg10.dtd">
<svg version="1.0" xmlns="http://www.w3.org/2000/svg"
 width="1024.000000pt" height="1024.000000pt" viewBox="0 0 1024.000000 1024.000000"
 preserveAspectRatio="xMidYMid meet">
<metadata>
Created by potrace 1.14, written by Peter Selinger 2001-2017
</metadata>
<g transform="translate(0.000000,1024.000000) scale(0.100000,-0.100000)"
fill="#000000" stroke="none">
<path d="M5084 9803 c-3 -16 -13 -54 -21 -87 -8 -32 -13 -75 -11 -94 3 -40 15
-35 -132 -62 -212 -39 -410 -173 -541 -366 -90 -134 -129 -240 -135 -373 -4
-78 -17 -100 -60 -101 -11 0 -29 -6 -39 -14 -16 -12 -17 -16 -6 -30 8 -9 33
-21 56 -27 l42 -11 11 -80 c7 -44 25 -117 40 -163 21 -60 25 -82 15 -82 -7 0
-11 2 -9 4 5 5 -42 145 -51 153 -8 7 7 -68 19 -99 6 -14 12 -31 13 -37 5 -22
66 -137 100 -189 41 -61 175 -191 226 -218 l34 -18 -30 22 c-61 46 -186 175
-189 194 -2 11 -8 20 -14 20 -6 0 -14 4 -19 9 -5 5 -3 6 5 2 6 -4 12 -3 12 3
0 6 -8 15 -18 20 -10 5 -18 19 -19 31 -1 12 0 21 1 19 34 -37 75 -103 70 -112
-4 -7 -4 -9 1 -5 4 4 43 -25 86 -66 116 -109 282 -188 457 -217 l72 -12 0 -73
c0 -41 -3 -74 -7 -74 -39 0 -187 23 -241 36 -221 55 -450 226 -569 425 -107
176 -146 318 -147 534 0 189 28 303 120 488 33 65 49 107 42 107 -16 0 -103
-20 -296 -66 -266 -65 -441 -124 -717 -245 -329 -142 -551 -280 -893 -556 -34
-27 -42 -25 -55 12 -2 5 -21 3 -45 -7 -48 -19 -42 -23 -116 86 l-47 70 20 20
c11 11 22 18 24 15 43 -61 65 -83 96 -99 66 -33 87 -21 304 185 107 102 198
192 201 201 3 9 6 33 6 55 0 36 -9 49 -117 165 -65 70 -144 148 -176 175 -54
45 -63 49 -111 49 -50 0 -56 -3 -129 -64 -42 -35 -133 -120 -202 -188 -123
-122 -125 -125 -125 -169 0 -40 6 -51 60 -111 33 -36 60 -70 60 -74 0 -4 -9
-18 -21 -30 l-21 -22 -71 23 c-40 13 -84 26 -99 29 -21 5 -28 12 -28 31 0 13
-4 35 -10 49 -9 24 -14 26 -72 25 -100 -2 -112 -8 -116 -57 l-3 -43 -76 -35
c-41 -18 -83 -34 -92 -34 -10 0 -30 13 -45 29 l-29 30 89 96 c49 52 93 104 98
115 5 10 5 35 2 56 -6 30 -37 67 -184 215 l-177 179 -45 0 c-25 -1 -55 -6 -67
-13 -11 -7 -112 -101 -222 -209 l-201 -197 0 -47 0 -47 172 -174 c177 -179
207 -203 254 -203 21 0 25 -3 19 -17 -21 -49 -18 -62 19 -84 20 -12 35 -24 34
-28 -2 -3 -12 -30 -23 -58 -19 -52 -20 -53 -61 -53 -23 0 -46 -6 -52 -13 -6
-6 -12 -41 -13 -75 -3 -71 5 -82 58 -82 39 0 41 -3 49 -73 l7 -56 -36 -17
c-20 -10 -38 -23 -41 -30 -3 -8 6 -38 20 -69 27 -58 36 -62 94 -46 21 6 33 -2
81 -53 l56 -60 -24 -39 c-14 -22 -21 -43 -16 -47 37 -33 117 -90 126 -90 6 0
25 14 43 31 l31 30 57 -27 c31 -16 56 -34 56 -40 0 -7 -16 -31 -36 -55 -20
-24 -73 -106 -119 -184 -272 -461 -447 -966 -530 -1530 -9 -60 -18 -123 -21
-140 -3 -16 -13 -113 -23 -215 l-17 -185 -84 -7 c-83 -7 -213 -23 -277 -35
-38 -6 -44 -28 -9 -37 35 -9 242 -26 314 -26 l62 0 0 -82 c1 -109 31 -501 44
-563 2 -11 7 -45 11 -75 26 -211 76 -439 141 -642 l34 -108 0 -275 c0 -309 2
-319 67 -350 31 -15 54 -17 139 -12 l101 6 114 -171 c63 -94 118 -177 123
-184 7 -8 -34 -57 -140 -169 -82 -86 -157 -171 -166 -188 -33 -62 -22 -94 69
-187 l53 -56 -69 -68 c-57 -57 -73 -67 -84 -57 -29 23 -97 -32 -97 -80 0 -6
-13 -26 -29 -44 -29 -33 -69 -139 -94 -251 -19 -79 -15 -237 5 -285 l16 -37
-166 -163 c-92 -90 -256 -249 -364 -352 -164 -156 -198 -193 -198 -216 0 -35
30 -64 62 -59 15 2 146 127 382 367 l359 363 111 2 c124 2 180 18 321 88 65
32 83 38 98 28 28 -17 46 -5 132 88 44 48 95 100 113 116 l32 28 61 -56 c109
-101 130 -103 204 -17 22 25 68 72 103 105 60 57 62 58 92 46 42 -17 93 -7
142 29 23 17 48 31 55 31 7 0 50 -24 95 -54 86 -56 288 -171 394 -224 209
-106 562 -236 809 -299 153 -38 427 -94 433 -88 2 2 -12 30 -31 62 -99 162
-147 348 -148 563 0 199 26 321 104 475 99 198 271 365 470 455 79 35 233 78
315 86 l63 7 -3 -34 -3 -34 -71 -7 c-166 -17 -370 -110 -497 -228 -215 -199
-308 -409 -308 -702 0 -80 6 -163 15 -205 42 -202 187 -423 361 -549 109 -80
299 -151 447 -169 l57 -7 6 -47 c27 -229 48 -296 61 -199 3 18 9 57 14 87 6
30 10 76 10 102 0 26 5 51 10 54 6 4 36 11 68 15 322 49 574 231 712 515 65
133 80 195 87 348 7 147 -5 239 -47 360 -50 147 -124 261 -247 378 -133 127
-276 202 -448 235 -38 8 -82 14 -97 14 -25 0 -28 3 -28 36 l0 37 58 -7 c247
-29 479 -157 645 -355 64 -77 127 -164 127 -176 0 -4 7 -21 15 -38 64 -141 95
-284 95 -447 0 -218 -62 -432 -177 -607 -18 -26 -18 -27 7 -20 14 4 57 12 95
18 272 42 727 196 1060 359 186 91 329 183 584 374 136 102 186 134 192 125 5
-9 -1 -20 -21 -32 -36 -22 -37 -35 -9 -88 18 -35 24 -40 47 -36 15 2 35 7 44
11 12 6 25 -3 47 -35 41 -56 39 -68 -4 -30 -26 23 -46 31 -73 31 -34 0 -48
-12 -209 -173 l-173 -173 0 -53 0 -53 168 -169 167 -169 48 0 47 0 171 163
c93 89 172 172 175 185 11 40 -6 74 -71 141 -63 66 -63 66 -45 89 23 28 32 27
100 -6 47 -24 56 -33 64 -65 l10 -38 70 3 71 3 3 32 c3 28 10 36 50 53 l47 21
21 -26 21 -27 41 21 c29 15 42 29 47 50 7 33 31 33 61 0 17 -19 15 -23 -80
-118 -85 -86 -98 -103 -103 -140 l-6 -42 179 -179 179 -180 58 0 58 0 142 137
c78 76 146 143 152 148 6 6 39 40 73 77 55 60 62 72 62 108 0 45 8 35 -219
275 -120 126 -144 145 -186 145 -40 0 -71 -22 -143 -100 l-60 -65 -26 24 c-32
30 -33 41 -1 71 21 20 28 22 50 12 14 -7 27 -12 29 -12 6 0 76 110 76 118 0 5
-13 20 -29 33 -28 24 -29 26 -19 72 9 44 11 47 42 47 32 0 34 2 40 46 3 26 6
66 6 90 0 42 0 43 -42 51 -42 8 -43 10 -46 50 -3 41 1 49 43 77 19 14 19 15
-10 76 -16 34 -32 63 -36 65 -3 3 -23 -5 -45 -15 l-38 -20 -38 42 c-43 49 -46
68 -18 93 11 10 20 22 20 26 0 5 -30 31 -67 59 l-66 50 -24 -35 c-13 -19 -25
-35 -27 -35 -7 0 -116 52 -116 55 0 2 43 67 96 145 425 625 640 1237 729 2080
3 25 8 97 12 161 l6 117 151 6 c397 18 372 65 -50 92 l-101 7 -7 111 c-9 153
-56 548 -71 596 -3 8 -14 66 -25 128 -11 62 -32 157 -45 210 -24 94 -25 108
-25 445 0 220 -4 355 -10 368 -21 38 -63 50 -158 43 -84 -6 -88 -5 -101 17 -8
13 -51 87 -96 164 -45 77 -107 180 -138 228 -31 48 -57 91 -57 95 0 4 68 75
150 157 113 112 153 160 162 188 7 22 28 53 52 74 36 33 40 40 39 85 0 33 -10
69 -30 109 -29 58 -29 59 -10 76 11 10 47 49 80 88 37 43 68 69 81 70 49 0
163 234 185 382 15 99 14 193 -4 242 l-14 42 187 182 c489 475 473 459 470
497 -4 43 -43 70 -81 55 -13 -6 -172 -161 -353 -345 -315 -321 -331 -335 -369
-338 -162 -10 -284 -53 -423 -147 -29 -19 -43 -23 -77 -18 -37 5 -44 2 -63
-22 -12 -15 -22 -33 -22 -39 0 -19 -137 -149 -144 -137 -4 6 -44 33 -89 61
-129 79 -122 82 -316 -114 l-163 -163 -68 5 c-63 4 -73 2 -124 -26 l-55 -32
-111 80 c-419 300 -956 536 -1445 635 -71 15 -133 29 -137 31 -17 11 -7 -19
31 -89 46 -86 94 -232 111 -340 17 -106 8 -318 -19 -420 -44 -168 -146 -343
-266 -455 -166 -155 -381 -257 -582 -277 l-73 -7 0 60 0 59 68 6 c225 22 456
148 589 322 91 119 149 249 180 404 19 95 31 134 42 138 28 8 45 19 49 31 4
14 -56 42 -91 42 -22 0 -25 7 -41 97 -31 178 -88 307 -194 445 -113 147 -333
273 -521 300 l-79 11 -11 76 c-16 101 -33 171 -43 171 -4 0 -10 -12 -14 -27z
m4864 -35 c-2 -14 -11 -24 -23 -26 -11 -2 -154 -137 -317 -300 -164 -163 -298
-290 -298 -283 0 16 56 76 378 404 219 222 268 261 260 205z m-4839 -520 c1
-306 0 -348 -14 -348 -13 0 -15 45 -15 369 0 366 7 499 21 381 3 -30 7 -211 8
-402z m-52 185 c1 -73 1 -73 -25 -73 -45 0 -173 -39 -237 -73 -91 -48 -221
-183 -268 -279 -36 -74 -63 -166 -69 -238 -2 -23 -8 -35 -18 -35 -19 0 -17
104 5 189 18 68 12 86 -10 33 -17 -42 -36 -46 -65 -17 -28 28 -25 47 19 136
79 157 186 260 358 346 99 50 230 89 283 85 24 -2 25 -5 27 -74z m207 67 c18
-7 26 -17 26 -34 0 -33 -29 -48 -88 -44 l-47 3 -3 43 -3 42 45 0 c24 0 56 -4
70 -10z m40 -121 c94 -29 183 -86 273 -175 64 -64 89 -99 122 -165 63 -131 96
-299 60 -307 -13 -2 -18 9 -23 59 -33 285 -246 519 -520 571 -54 10 -66 16
-66 31 0 17 5 19 47 12 26 -4 74 -15 107 -26z m-4051 -206 c87 -87 163 -168
168 -181 5 -14 5 -30 0 -41 -19 -35 -175 -182 -188 -177 -14 6 -18 26 -5 26 5
0 45 36 90 81 54 53 82 88 82 103 0 15 -42 63 -139 156 -77 73 -138 137 -135
142 3 4 -7 13 -21 18 -19 7 -33 6 -53 -5 -38 -20 -365 -343 -391 -385 l-21
-35 0 29 c0 25 28 58 178 209 179 181 221 217 256 217 12 0 84 -63 179 -157z
m4046 106 c20 -7 45 -19 56 -27 l20 -14 -20 7 c-87 34 -135 46 -167 43 -35 -3
-46 1 -33 14 7 7 97 -8 144 -23z m-249 0 c0 -19 -1 -19 -16 -4 -12 11 -26 14
-48 10 -23 -5 -27 -4 -16 4 8 6 30 11 48 11 26 0 32 -4 32 -21z m-3945 1 c3
-5 -2 -10 -13 -10 -22 0 -392 -361 -392 -384 0 -18 265 -293 291 -301 14 -5
38 10 87 54 65 58 98 76 90 49 -3 -7 -39 -41 -82 -76 l-77 -62 -30 17 c-17 10
-85 76 -152 146 -139 148 -146 156 -147 179 0 9 60 76 133 150 243 243 273
268 292 238z m1295 -36 c22 -20 38 -39 35 -42 -3 -3 -18 7 -33 21 -21 20 -38
27 -69 27 -47 0 -51 -3 -218 -155 -159 -144 -189 -174 -183 -180 3 -3 25 14
49 37 104 101 303 278 312 278 9 0 -51 -62 -209 -212 -32 -31 -63 -62 -69 -68
-5 -6 -25 -23 -42 -38 l-32 -27 147 -153 c128 -133 152 -153 175 -150 40 5
357 321 358 357 0 26 0 26 11 4 15 -30 -5 -55 -189 -237 -182 -179 -184 -180
-277 -83 -34 35 -105 109 -158 164 -71 73 -98 107 -98 125 0 29 98 129 305
310 82 72 124 77 185 22z m2554 -16 c27 -43 29 -85 7 -107 -26 -26 -27 -35 -3
-23 9 6 36 13 60 17 38 6 42 5 42 -13 0 -16 -12 -24 -52 -36 -137 -40 -259
-168 -283 -298 -6 -32 -11 -38 -32 -38 -22 0 -24 3 -18 33 4 17 9 40 11 50 4
13 -1 17 -25 17 -16 0 -37 3 -46 6 -23 9 -47 61 -39 87 4 16 3 19 -5 12 -6 -6
-12 -20 -14 -32 -4 -25 -17 -43 -17 -24 0 51 92 201 167 272 76 73 113 94 176
97 49 3 58 0 71 -20z m466 -14 c0 -2 -9 0 -20 6 -11 6 -20 13 -20 16 0 2 9 0
20 -6 11 -6 20 -13 20 -16z m-3007 -23 c23 -21 45 -38 48 -37 4 0 46 -35 94
-79 77 -70 126 -137 111 -152 -2 -2 -7 4 -10 15 -7 21 -180 192 -195 192 -4 0
-16 10 -27 22 -10 11 -39 34 -63 50 -36 22 -40 28 -23 28 12 0 41 -18 65 -39z
m-1243 -6 c0 -2 -10 -10 -22 -16 -21 -11 -22 -11 -9 4 13 16 31 23 31 12z
m1240 -41 c0 -21 -27 -17 -33 5 -3 14 0 17 14 14 11 -3 19 -12 19 -19z m-1350
6 c0 -5 -4 -10 -10 -10 -5 0 -10 5 -10 10 0 6 5 10 10 10 6 0 10 -4 10 -10z
m57 -25 c5 -16 -22 -55 -39 -55 -18 0 -20 31 -3 50 22 24 34 25 42 5z m1137 0
c-4 -8 -10 -15 -15 -15 -4 0 -6 7 -3 15 4 8 10 15 15 15 4 0 6 -7 3 -15z
m3277 -2 c13 -16 12 -17 -3 -4 -10 7 -18 15 -18 17 0 8 8 3 21 -13z m-3061
-29 c22 -20 49 -43 60 -51 24 -17 26 -33 4 -33 -9 0 -18 9 -21 20 -3 11 -14
20 -24 20 -12 0 -19 7 -19 20 0 11 -5 20 -11 20 -11 0 -39 24 -39 34 0 12 12
5 50 -30z m-170 18 c0 -5 -9 -17 -20 -27 -16 -14 -20 -15 -20 -4 0 16 19 39
32 39 4 0 8 -4 8 -8z m2936 -12 c71 -25 115 -53 172 -111 45 -46 99 -143 108
-194 2 -17 6 -35 9 -42 2 -6 -3 -14 -10 -17 -16 -6 -26 10 -45 69 -38 121
-131 214 -256 255 -49 17 -64 26 -64 41 0 24 13 24 86 -1z m-4016 -5 c-7 -9
-15 -13 -17 -11 -7 7 7 26 19 26 6 0 6 -6 -2 -15z m-222 -15 c-7 -11 -17 -20
-22 -20 -5 0 -1 9 9 20 10 11 20 20 22 20 2 0 -2 -9 -9 -20z m262 -5 c-7 -8
-17 -15 -22 -15 -6 0 -5 7 2 15 7 8 17 15 22 15 6 0 5 -7 -2 -15z m1068 -1
c-4 -20 -34 -41 -44 -31 -8 8 24 47 38 47 5 0 8 -7 6 -16z m-1153 -4 c3 -5 -4
-19 -15 -30 -17 -17 -24 -19 -36 -9 -13 10 -12 14 2 30 19 21 39 25 49 9z
m8073 -17 c79 -59 64 -271 -32 -461 -59 -115 -56 -114 -101 -31 -42 76 -75
113 -244 273 -79 74 -100 100 -90 107 61 39 187 96 254 115 96 28 173 27 213
-3z m-8193 6 c7 -11 -31 -59 -47 -59 -14 0 -9 33 9 52 18 21 29 23 38 7z m235
-3 c0 -2 -8 -10 -17 -17 -16 -13 -17 -12 -4 4 13 16 21 21 21 13z m905 -6 c-3
-5 -11 -10 -16 -10 -6 0 -7 5 -4 10 3 6 11 10 16 10 6 0 7 -4 4 -10z m168 3
c9 -9 -22 -43 -40 -43 -16 0 -17 22 -1 38 13 13 31 16 41 5z m-1153 -21 c0
-16 -39 -44 -50 -37 -8 5 -6 13 7 25 19 20 43 26 43 12z m106 -18 c-9 -9 -20
-14 -23 -10 -4 3 2 13 13 20 25 18 31 12 10 -10z m914 11 c0 -16 -27 -32 -37
-21 -7 7 16 36 28 36 5 0 9 -7 9 -15z m2830 -5 c0 -6 -12 -15 -27 -21 -77 -30
-113 -50 -108 -59 3 -5 -1 -7 -9 -4 -22 8 -103 -100 -117 -158 -8 -28 -18 -48
-27 -48 -14 0 -13 8 16 95 24 69 109 154 182 182 63 24 90 28 90 13z m176 -14
c59 -27 124 -83 153 -129 27 -43 53 -125 45 -138 -9 -15 -19 -1 -34 46 -29 91
-103 168 -192 202 -53 20 -75 43 -41 43 10 0 41 -11 69 -24z m-4147 -33 c-38
-39 -55 -20 -23 25 13 19 19 21 30 11 13 -10 12 -15 -7 -36z m-169 27 c0 -5
-4 -10 -10 -10 -5 0 -10 5 -10 10 0 6 5 10 10 10 6 0 10 -4 10 -10z m440 7 c0
-2 -10 -12 -22 -23 l-23 -19 19 23 c18 21 26 27 26 19z m898 -14 c-2 -10 -11
-19 -21 -21 -16 -3 -17 -1 -7 17 13 25 33 28 28 4z m327 -5 c0 -8 7 -24 15
-34 14 -16 12 -16 -12 1 -27 20 -39 60 -15 52 6 -2 12 -11 12 -19z m-1331 -7
c14 -15 15 -24 6 -40 -14 -26 -18 -26 -47 1 -21 20 -22 23 -6 40 20 23 26 23
47 -1z m1166 5 c0 -19 -44 -50 -48 -36 -4 12 26 50 40 50 4 0 8 -6 8 -14z
m-1430 -4 c0 -5 -11 -19 -25 -32 -24 -22 -25 -22 -25 -4 0 11 5 25 12 32 14
14 38 16 38 4z m390 4 c0 -2 -8 -10 -17 -17 -16 -13 -17 -12 -4 4 13 16 21 21
21 13z m745 -5 c3 -5 1 -12 -5 -16 -5 -3 -10 1 -10 9 0 18 6 21 15 7z m165
-16 c0 -16 -27 -32 -37 -21 -7 7 16 36 28 36 5 0 9 -7 9 -15z m-1150 -3 c0
-14 -39 -46 -47 -39 -3 4 2 16 12 27 19 21 35 26 35 12z m3850 -2 c-8 -5 -19
-10 -25 -10 -5 0 -3 5 5 10 8 5 20 10 25 10 6 0 3 -5 -5 -10z m-4116 -8 c2 -4
-4 -13 -15 -20 -21 -13 -22 -12 -13 12 7 17 20 21 28 8z m1286 -1 c0 -14 -18
-23 -30 -16 -6 4 -8 11 -5 16 8 12 35 12 35 0z m304 -13 c-4 -6 -1 -14 7 -18
10 -7 10 -11 0 -24 -17 -20 -28 -20 -48 0 -14 14 -13 17 7 39 22 23 48 25 34
3z m2598 -23 c4 -32 1 -36 -28 -45 -34 -12 -97 -74 -116 -116 -8 -17 -19 -24
-40 -24 -24 0 -28 4 -28 27 0 36 34 103 68 136 28 27 120 69 133 61 4 -2 9
-20 11 -39z m1418 -62 c163 -58 286 -111 431 -184 191 -95 479 -275 479 -299
0 -8 -65 -50 -166 -105 l-50 -28 -50 35 c-105 75 -412 234 -599 311 -99 41
-265 95 -337 111 -25 6 -28 11 -28 45 0 22 -7 75 -15 118 -8 43 -15 83 -15 90
0 15 183 -34 350 -94z m-5140 94 c0 -2 -10 -12 -22 -23 l-23 -19 19 23 c18 21
26 27 26 19z m2716 -14 c-21 -72 -28 -115 -27 -160 0 -29 -4 -55 -8 -58 -5 -3
-65 -21 -133 -41 -334 -97 -662 -250 -958 -447 -253 -168 -335 -243 -696 -632
-233 -251 -400 -474 -512 -685 -107 -200 -243 -524 -289 -685 -32 -115 -75
-283 -83 -330 -5 -27 -11 -59 -14 -70 -5 -24 -19 -130 -21 -160 -1 -11 -4 -36
-8 -55 -11 -60 -16 -120 -23 -270 -4 -87 -11 -148 -18 -152 -6 -4 -64 -8 -128
-8 l-118 0 0 28 c0 42 29 337 41 417 72 479 188 860 384 1260 105 214 164 311
277 461 49 65 94 130 99 144 l10 25 34 -37 35 -37 57 30 c78 41 80 43 60 84
-16 34 -16 35 6 46 12 6 42 31 67 55 l46 44 37 -26 c21 -14 42 -22 47 -19 6 4
26 30 45 58 l35 51 -35 29 c-19 16 -35 34 -35 41 0 23 59 95 90 111 28 14 30
20 30 69 0 67 14 86 143 189 445 358 962 618 1442 727 107 24 128 25 121 3z
m1164 -9 c0 -2 -9 0 -20 6 -11 6 -20 13 -20 16 0 2 9 0 20 -6 11 -6 20 -13 20
-16z m-4190 3 c0 -17 -20 -37 -37 -37 -16 0 -17 22 -1 38 16 16 38 15 38 -1z
m150 -4 c0 -3 -7 -15 -17 -25 -18 -20 -4 -25 15 -6 9 9 15 9 23 1 8 -8 6 -17
-10 -34 l-21 -23 -20 22 c-23 25 -25 37 -7 57 12 15 37 20 37 8z m880 -2 c0
-12 -20 -25 -27 -18 -7 7 6 27 18 27 5 0 9 -4 9 -9z m128 -3 c-6 -18 -28 -21
-28 -4 0 9 7 16 16 16 9 0 14 -5 12 -12z m160 0 c-6 -16 -36 -34 -44 -25 -9 9
15 37 33 37 8 0 13 -5 11 -12z m-1428 -11 c0 -17 -38 -53 -46 -44 -8 8 23 57
36 57 6 0 10 -6 10 -13z m1300 -11 c0 -18 -17 -29 -30 -21 -8 5 -7 11 1 21 15
18 29 18 29 0z m3435 4 c3 -5 1 -10 -4 -10 -6 0 -11 5 -11 10 0 6 2 10 4 10 3
0 8 -4 11 -10z m3110 -64 c50 -40 115 -105 146 -142 82 -102 169 -229 169
-249 0 -16 -116 -145 -131 -145 -4 0 -10 8 -13 17 -5 12 11 35 55 79 l61 62
-28 53 c-39 71 -115 152 -256 271 -115 97 -125 108 -111 121 11 12 17 8 108
-67z m-7700 44 c0 -15 -31 -37 -40 -28 -9 9 18 49 30 45 5 -2 10 -10 10 -17z
m1025 11 c0 -12 -20 -25 -27 -18 -7 7 6 27 18 27 5 0 9 -4 9 -9z m300 -9 c0
-14 -39 -46 -47 -39 -3 4 2 16 12 27 19 21 35 26 35 12z m3288 -67 c-2 -1 -37
-5 -78 -8 l-75 -6 40 19 c22 10 52 19 68 19 21 1 27 6 28 24 1 16 3 14 10 -12
6 -18 9 -34 7 -36z m-4708 47 c0 -5 -11 -19 -24 -31 -29 -27 -47 -10 -20 20
17 19 44 26 44 11z m1150 -7 c0 -8 -2 -15 -4 -15 -2 0 -12 -3 -21 -7 -15 -5
-16 -3 -6 15 13 25 31 29 31 7z m146 0 c6 -15 -11 -45 -26 -45 -14 0 -20 32
-9 46 15 18 28 18 35 -1z m-1175 -28 c-11 -12 -24 -18 -27 -14 -10 10 27 48
38 41 6 -4 1 -16 -11 -27z m1329 25 c0 -14 -39 -46 -47 -39 -3 4 2 16 12 27
19 21 35 26 35 12z m2698 -8 c27 -8 29 -24 2 -24 -11 0 -43 -22 -72 -50 -28
-27 -57 -50 -62 -50 -6 0 -4 -4 4 -10 8 -5 12 -11 10 -13 -5 -5 -806 -12 -825
-8 -5 1 -1 6 10 11 11 5 185 9 388 9 l367 1 0 21 c0 13 21 43 49 70 49 50 73
58 129 43z m-2968 -19 c0 -16 -27 -32 -37 -21 -7 7 16 36 28 36 5 0 9 -7 9
-15z m6485 -4 c0 -16 -77 -110 -90 -111 -6 0 -16 5 -23 12 -10 10 -1 24 40 65
50 50 73 61 73 34z m-7625 1 c0 -15 -48 -54 -54 -44 -7 12 22 52 40 52 8 0 14
-4 14 -8z m111 -35 c-16 -16 -26 0 -10 19 9 11 15 12 17 4 2 -6 -1 -17 -7 -23z
m1183 2 c-9 -10 -21 -19 -26 -19 -15 0 -8 29 9 39 26 14 37 2 17 -20z m6356
-14 c-7 -9 -21 -20 -31 -26 -16 -8 -15 -4 4 25 13 20 26 30 31 25 5 -5 4 -15
-4 -24z m-7613 -5 c-4 -18 -2 -30 4 -30 6 0 7 4 4 10 -3 6 1 7 9 4 20 -8 20
-18 2 -33 -17 -15 -49 -3 -42 16 3 8 2 11 -3 8 -20 -11 -19 13 0 33 27 30 33
28 26 -8z m1163 10 c0 -13 -29 -32 -40 -25 -14 9 -13 32 3 38 15 5 37 -2 37
-13z m-951 -86 c50 -53 91 -103 91 -112 0 -18 -58 35 -152 141 -93 104 -43 81
61 -29z m1081 82 c0 -16 -28 -42 -36 -33 -7 6 18 47 28 47 5 0 8 -6 8 -14z
m6419 -52 c34 -31 61 -62 61 -68 0 -7 -15 -26 -32 -42 -67 -62 -62 -62 -128
-4 -33 29 -60 56 -60 61 0 10 82 107 92 108 4 1 34 -24 67 -55z m-7142 -21
c-2 -16 -4 -5 -4 22 0 28 2 40 4 28 2 -13 2 -35 0 -50z m6872 -5 c115 -87 241
-205 331 -313 81 -97 122 -162 54 -85 -152 172 -290 300 -441 409 -40 29 -73
54 -73 57 0 18 48 -7 129 -68z m-7539 59 c0 -2 -12 -14 -27 -28 -24 -22 -23
-11 2 18 9 11 25 17 25 10z m1300 -22 c0 -16 -34 -38 -44 -28 -7 7 23 43 36
43 4 0 8 -7 8 -15z m6212 -82 c143 -106 364 -332 340 -347 -5 -3 -40 29 -78
71 -72 80 -221 212 -337 298 -36 28 -67 56 -67 63 0 18 19 6 142 -85z m-6087
77 c-3 -5 -11 -10 -16 -10 -6 0 -7 5 -4 10 3 6 11 10 16 10 6 0 7 -4 4 -10z
m5719 -72 c-100 -103 -276 -296 -333 -366 -97 -117 -21 -50 216 194 248 254
251 256 277 242 l26 -13 -147 -155 c-80 -85 -293 -306 -473 -490 -179 -184
-371 -383 -426 -441 l-99 -107 -27 26 c-16 14 -28 22 -28 18 0 -5 19 -25 41
-46 l41 -38 71 77 c91 97 305 318 617 636 135 138 295 304 356 370 124 135
109 130 193 58 l34 -29 -265 -265 c-146 -145 -318 -320 -383 -389 -64 -69
-179 -188 -254 -265 -75 -77 -167 -173 -205 -212 l-69 -72 24 -20 c13 -10 22
-22 19 -25 -8 -7 -236 188 -256 219 -16 25 -16 25 192 242 115 120 307 322
428 448 386 403 469 485 490 485 16 0 2 -19 -60 -82z m492 44 c-18 -16 -18
-16 -6 6 6 13 14 21 18 18 3 -4 -2 -14 -12 -24z m-6320 -10 c-8 -9 -19 -13
-22 -9 -10 9 16 38 28 31 6 -4 4 -13 -6 -22z m3752 13 c12 -3 22 -10 22 -17 0
-8 -73 -9 -267 -5 -148 4 -334 7 -415 7 -112 0 -148 3 -148 13 0 9 84 11 392
9 216 -1 403 -4 416 -7z m-5048 -10 c-7 -8 -17 -15 -22 -15 -6 0 -5 7 2 15 7
8 17 15 22 15 6 0 5 -7 -2 -15z m1080 -18 c0 -15 -58 -87 -71 -87 -17 0 -9 21
24 60 33 41 47 49 47 27z m1957 -9 c-3 -8 -6 -5 -6 6 -1 11 2 17 5 13 3 -3 4
-12 1 -19z m-2198 -27 c165 -51 317 -222 366 -411 45 -172 -33 -412 -170 -525
-111 -90 -267 -142 -399 -132 -100 7 -221 55 -286 113 -27 25 -47 50 -44 55 3
5 0 8 -7 7 -14 -4 -81 81 -109 138 -24 48 -50 176 -50 242 0 89 70 292 100
292 6 0 10 6 10 13 0 24 115 125 174 154 37 18 56 33 56 45 0 19 16 25 22 8 2
-6 21 -4 48 5 68 21 216 19 289 -4z m-549 -44 c0 -5 -9 -22 -21 -38 -16 -23
-28 -29 -58 -29 -21 0 -41 3 -45 7 -3 4 15 28 41 55 44 45 48 47 65 31 10 -9
18 -20 18 -26z m3205 16 c37 -174 117 -314 235 -411 83 -68 173 -106 323 -137
21 -4 27 -11 27 -30 0 -30 -23 -32 -109 -10 -276 71 -467 284 -516 573 -6 38
-5 42 14 42 14 0 22 -8 26 -27z m191 20 c-7 -7 -77 -5 -85 3 -2 2 17 4 44 4
27 0 45 -3 41 -7z m68 -25 c25 -132 153 -267 283 -300 46 -11 61 -24 46 -39
-13 -13 -117 20 -172 55 -99 63 -188 184 -206 279 -7 35 -6 37 18 37 20 0 26
-6 31 -32z m90 -33 c16 -35 44 -83 63 -105 34 -40 117 -90 148 -90 15 0 32
-26 23 -36 -13 -12 -122 41 -167 82 -64 57 -144 214 -109 214 7 0 26 -30 42
-65z m626 47 c0 -38 -61 -140 -113 -189 -56 -53 -162 -102 -180 -84 -12 12 0
31 21 31 32 0 119 48 157 85 32 33 67 95 88 158 8 23 27 22 27 -1z m79 -29
c-5 -26 -19 -66 -30 -90 -28 -58 -111 -147 -167 -180 -56 -33 -169 -66 -178
-51 -9 14 4 23 66 42 72 23 143 69 185 120 42 51 85 142 85 179 0 22 5 27 24
27 23 0 23 -2 15 -47z m248 -6 c-8 -65 -47 -180 -84 -250 -15 -28 -64 -89
-109 -133 -64 -66 -97 -89 -165 -122 -79 -38 -224 -79 -250 -70 -7 2 -14 14
-15 26 -3 17 2 23 24 27 157 30 251 70 337 143 108 92 178 210 211 352 15 66
21 80 37 80 18 0 19 -5 14 -53z m3093 8 c0 -8 -8 -19 -17 -24 -10 -6 -14 -11
-9 -11 5 0 -4 -12 -19 -26 -28 -26 -55 -26 -55 1 0 10 11 15 33 16 23 1 26 3
10 6 -13 2 -23 9 -23 14 0 6 4 8 9 5 5 -3 22 1 37 9 16 8 23 15 16 15 -7 0
-10 5 -7 10 8 13 25 3 25 -15z m-2693 -32 c-3 -10 -5 -4 -5 12 0 17 2 24 5 18
2 -7 2 -21 0 -30z m2389 -85 c90 -86 98 -98 82 -133 l-12 -26 -18 30 c-27 43
-104 91 -145 91 -40 0 -99 -28 -132 -64 -33 -35 -14 -32 29 4 19 17 39 30 44
30 6 0 -8 -13 -30 -30 -51 -37 -64 -66 -64 -143 l0 -62 -231 -237 c-137 -142
-225 -240 -217 -242 7 -3 19 -6 27 -8 10 -3 1 -18 -27 -48 -48 -50 -51 -55
-19 -39 20 11 21 11 8 -5 -8 -9 -20 -15 -26 -12 -12 4 -121 -98 -118 -112 2
-10 -245 -262 -257 -262 -6 0 -10 4 -10 9 0 5 -10 11 -22 14 -20 6 -8 21 108
139 226 232 320 345 302 363 -2 2 -28 -24 -57 -58 -83 -97 -382 -407 -392
-407 -24 0 3 34 159 193 92 95 185 193 208 217 22 25 -57 -54 -177 -175 -160
-162 -220 -217 -229 -209 -8 8 11 32 71 90 100 97 359 375 359 386 0 27 -47
-16 -235 -211 -115 -121 -213 -219 -217 -220 -5 -1 -8 10 -8 23 0 16 24 46 78
97 42 41 144 144 227 229 319 331 845 860 855 860 5 0 44 -32 86 -72z m-4693
-26 c40 -99 33 -109 -13 -17 -46 91 -44 85 -27 85 6 0 24 -30 40 -68z m22 38
c17 -33 19 -44 6 -36 -10 6 -33 66 -26 66 3 0 11 -13 20 -30z m2445 -46 c-12
-33 -24 -65 -26 -73 -2 -8 -7 -12 -10 -9 -2 3 7 38 22 77 15 39 28 70 31 68 2
-3 -6 -31 -17 -63z m1475 56 c4 -6 -74 -91 -173 -188 -98 -97 -284 -287 -413
-422 -129 -135 -237 -246 -240 -248 -10 -4 -162 156 -181 191 -30 53 -43 44
357 259 147 80 321 181 339 199 5 5 7 12 3 15 -3 3 -41 -13 -84 -37 -43 -23
-159 -86 -258 -139 -320 -172 -356 -194 -370 -220 -14 -24 -14 -24 -15 -3 0
40 42 71 255 186 116 63 325 179 465 259 299 170 301 171 315 148z m-1511 -25
c-4 -8 -8 -15 -10 -15 -2 0 -4 7 -4 15 0 8 4 15 10 15 5 0 7 -7 4 -15z m-1191
-192 c4 -91 7 -705 7 -1365 0 -802 3 -1198 10 -1198 9 0 124 30 171 45 19 6
19 -8 19 -592 0 -329 -4 -603 -8 -610 -4 -6 -47 -22 -97 -36 l-90 -24 -5
-1364 c-3 -750 -6 -1365 -8 -1366 -1 -2 -6 -3 -11 -3 -4 0 -10 714 -13 1598
-3 879 -8 1603 -11 1609 -5 8 -40 3 -111 -17 -58 -15 -110 -31 -115 -35 -7 -4
-11 -90 -11 -254 l0 -249 -82 -22 c-124 -32 -146 -40 -152 -53 -2 -7 -5 266
-5 605 -1 402 2 619 9 623 16 10 172 53 204 57 l28 3 -1 -242 c-2 -229 -1
-243 16 -242 10 0 63 13 118 28 l100 27 6 279 c4 154 7 884 8 1623 1 1244 8
1588 24 1175z m1054 137 c1 -11 -2 -18 -8 -15 -11 7 -12 35 -1 35 4 0 8 -9 9
-20z m-2241 2 c-2 -4 -1 -14 4 -21 6 -11 19 -10 69 7 34 11 61 17 61 13 0 -4
-28 -15 -62 -25 -59 -16 -63 -16 -75 0 -16 22 -17 34 -2 34 5 0 8 -4 5 -8z
m4608 -21 c30 -20 55 -55 56 -78 0 -7 -9 -37 -20 -67 -26 -68 -65 -92 -130
-77 -94 21 -121 102 -56 167 26 26 42 34 71 34 44 0 86 -23 108 -59 13 -20 17
-22 17 -8 0 33 -61 87 -110 96 l-45 9 40 1 c24 0 52 -7 69 -18z m-2311 -8 c-7
-2 -19 -2 -25 0 -7 3 -2 5 12 5 14 0 19 -2 13 -5z m300 -8 c-3 -9 -8 -14 -10
-11 -3 3 -2 9 2 15 9 16 15 13 8 -4z m-2990 -156 c11 -8 1 -29 -14 -29 -5 0
-13 8 -17 18 -13 32 -76 137 -86 145 -8 5 -6 10 3 16 11 7 25 -8 59 -67 25
-42 49 -80 55 -83z m2737 151 c0 -5 -4 -10 -10 -10 -5 0 -10 5 -10 10 0 6 5
10 10 10 6 0 10 -4 10 -10z m-2395 -18 c-14 -12 -97 -44 -101 -39 -3 2 19 13
48 25 61 24 65 25 53 14z m2499 -11 c-2 -3 8 -11 23 -18 26 -12 26 -12 3 -7
-14 4 -38 12 -55 20 l-30 13 32 -2 c18 -1 30 -3 27 -6z m-2685 -63 c1 -7 -125
-69 -138 -68 -3 1 24 16 61 35 57 29 66 38 62 57 -4 21 -4 21 5 3 5 -11 10
-23 10 -27z m51 17 c-14 -7 -27 -11 -30 -9 -6 7 22 24 40 23 9 0 5 -6 -10 -14z
m3004 -52 c-45 -83 -42 -79 -54 -67 -12 12 59 134 78 134 8 0 0 -23 -24 -67z
m-259 47 c8 -13 -5 -13 -25 0 -13 8 -13 10 2 10 9 0 20 -4 23 -10z m-2141 -16
c3 -8 2 -12 -4 -9 -6 3 -10 10 -10 16 0 14 7 11 14 -7z m2179 2 c4 -10 1 -13
-8 -9 -8 3 -12 9 -9 14 7 12 11 11 17 -5z m-2583 -39 c0 -13 5 -28 12 -35 6
-6 9 -14 5 -18 -6 -6 -47 53 -47 69 0 4 7 7 15 7 9 0 15 -9 15 -23z m2338 15
c-1 -4 -12 -31 -22 -60 -29 -76 -50 -69 -24 8 12 37 25 60 35 60 8 0 13 -4 11
-8z m287 -2 c3 -6 -1 -7 -9 -4 -18 7 -21 14 -7 14 6 0 13 -4 16 -10z m-2665
-20 c0 -5 -7 -7 -15 -4 -8 4 -15 8 -15 10 0 2 7 4 15 4 8 0 15 -4 15 -10z
m-85 -21 c-22 -10 -46 -19 -52 -19 -7 0 -13 -4 -13 -9 0 -5 -13 -12 -30 -16
-16 -4 -32 -11 -35 -16 -12 -18 -44 -30 -51 -17 -4 7 -3 8 4 4 7 -4 12 -3 12
2 0 8 42 28 160 80 43 18 47 11 5 -9z m-527 -58 l41 -60 -22 -14 c-42 -26 -47
-28 -47 -18 0 6 6 11 14 11 7 0 19 6 26 14 9 12 3 27 -31 77 -23 34 -37 59
-32 56 5 -3 28 -33 51 -66z m5107 11 c11 -6 15 -12 8 -12 -7 0 -22 10 -35 23
-13 12 -17 17 -8 11 8 -6 24 -16 35 -22z m-172 -554 c-326 -325 -596 -588
-600 -584 -8 8 1164 1176 1180 1176 7 0 -255 -266 -580 -592z m-4768 552 c-27
-16 -51 -27 -54 -24 -2 2 -2 5 0 7 36 21 86 46 94 46 6 1 -12 -13 -40 -29z
m2997 -28 c-12 -20 -35 -58 -50 -84 -15 -26 -33 -48 -39 -48 -20 0 -15 24 8
51 12 13 31 44 43 69 33 69 37 73 50 60 8 -8 5 -20 -12 -48z m-3076 -6 c15 5
16 4 4 -5 -22 -16 -27 -14 -50 22 l-22 32 24 -28 c17 -20 30 -26 44 -21z m803
-31 c-2 -2 -18 -6 -34 -9 l-30 -6 28 13 c25 12 26 15 12 33 -8 10 -14 24 -15
29 0 6 10 -5 21 -23 12 -18 20 -35 18 -37z m2797 41 c13 3 24 4 24 0 0 -5 -78
-49 -114 -65 -5 -2 7 17 25 42 20 26 35 39 37 31 2 -9 11 -12 28 -8z m-192 7
c4 -4 25 -13 46 -19 36 -11 40 -10 46 8 3 11 8 18 10 15 2 -2 -2 -18 -9 -35
l-13 -32 -55 35 c-30 19 -49 35 -43 35 6 0 14 -3 18 -7z m-3176 -33 c-10 -15
-10 -22 0 -32 15 -15 16 -38 2 -38 -5 0 -10 8 -10 19 0 23 -25 45 -42 36 -7
-4 -4 0 6 9 10 8 23 13 27 10 5 -3 9 0 9 5 0 6 5 11 10 11 6 0 5 -8 -2 -20z
m2440 -5 c0 -14 -4 -25 -9 -25 -10 0 -11 12 -3 34 9 22 12 20 12 -9z m-2998
-10 c13 -14 21 -25 18 -25 -2 0 -15 11 -28 25 -13 14 -21 25 -18 25 2 0 15
-11 28 -25z m5820 13 c0 -16 -761 -784 -773 -780 -5 1 -6 -1 -3 -6 3 -5 -60
-73 -140 -153 -79 -79 -144 -140 -144 -135 0 5 -21 -12 -47 -37 -41 -41 -81
-63 -71 -39 2 4 262 264 578 576 316 312 577 572 578 577 5 13 22 11 22 -3z
m-2217 -14 c3 -3 -17 -35 -46 -71 -62 -80 -73 -70 -16 15 39 60 49 69 62 56z
m-3542 -21 c13 -16 12 -17 -3 -4 -10 7 -18 15 -18 17 0 8 8 3 21 -13z m424 7
c-3 -5 -14 -10 -23 -10 -15 0 -15 2 -2 10 20 13 33 13 25 0z m-444 -37 c13
-16 12 -17 -3 -4 -10 7 -18 15 -18 17 0 8 8 3 21 -13z m5798 5 c0 -7 -3 -21
-7 -30 -10 -26 -912 -928 -928 -928 -7 0 -16 -4 -19 -10 -4 -6 1 -7 12 -4 25
9 -136 -154 -171 -173 -23 -12 -30 -12 -37 -2 -5 9 26 45 99 113 200 189 1032
1022 1032 1034 0 7 5 12 10 12 6 0 10 -6 9 -12z m-2119 -37 c0 -4 -7 -16 -16
-27 -15 -19 -15 -19 -6 1 5 11 7 26 4 34 -3 8 0 11 7 7 6 -4 11 -11 11 -15z
m-3697 -83 c-41 -27 -78 -47 -80 -44 -3 3 6 11 21 17 14 7 26 16 26 20 0 4 9
10 19 14 11 3 31 15 46 27 25 20 26 21 8 42 -15 17 -13 17 9 -3 l27 -23 -76
-50z m-179 45 c18 -21 46 -53 62 -72 l28 -34 -24 -16 c-13 -9 -42 -31 -64 -49
-23 -18 -49 -40 -59 -48 -11 -9 -20 -14 -21 -12 -1 2 -8 12 -16 23 -14 19 -14
19 4 5 16 -13 20 -12 32 5 8 10 14 16 14 13 0 -3 15 8 32 24 18 17 43 34 56
39 24 9 24 10 -30 72 -63 72 -73 87 -59 87 6 0 26 -17 45 -37z m781 -83 c-88
-44 -195 -102 -237 -129 l-77 -49 -40 52 c-23 29 -41 56 -41 59 0 17 19 3 54
-42 38 -48 40 -49 63 -34 12 8 20 20 16 26 -4 6 0 8 10 4 10 -3 17 -3 17 1 0
5 16 16 35 25 19 9 35 23 35 32 0 14 11 19 37 16 6 -1 36 12 67 29 31 17 56
28 56 25 0 -4 12 2 28 13 25 18 104 50 127 51 6 0 -62 -35 -150 -79z m5226 33
c-20 -37 -1077 -1083 -1094 -1083 -25 0 -21 17 6 24 12 3 261 246 552 539 292
294 534 535 538 535 4 1 3 -6 -2 -15z m-5671 -18 c-7 -8 -18 -15 -24 -15 -6 0
-2 7 8 15 25 19 32 19 16 0z m3485 -23 c-8 -40 8 -75 62 -135 98 -107 100
-112 21 -52 -43 31 -76 61 -73 65 3 5 0 12 -6 16 -8 5 -9 3 -4 -6 9 -15 4 -13
-63 25 -28 17 -52 34 -52 39 0 5 10 1 23 -8 12 -9 28 -19 36 -23 21 -10 46 12
43 37 -4 25 5 70 14 70 3 0 3 -13 -1 -28z m-3967 -71 c18 -57 77 -113 158
-146 105 -43 105 -47 11 -60 -35 -5 -59 -15 -84 -39 -30 -27 -37 -42 -47 -101
-12 -75 -36 -102 -36 -41 0 107 -91 195 -187 182 -59 -8 -54 7 11 34 104 42
171 127 151 190 -4 11 -2 20 3 20 5 0 14 -17 20 -39z m328 -28 c10 -16 45 -61
78 -101 34 -40 60 -75 59 -77 -7 -13 -163 -133 -163 -125 0 5 14 18 30 30 17
12 27 26 24 32 -4 6 -2 8 4 4 6 -3 22 5 36 19 14 14 30 25 36 25 5 0 10 2 10
5 0 3 -36 48 -81 100 -71 84 -87 115 -60 115 5 0 17 -12 27 -27z m4954 -138
c-35 -35 -66 -62 -69 -59 -5 4 118 122 129 124 2 0 -24 -29 -60 -65z m-5531
-57 c2 -82 28 -149 72 -181 36 -26 103 -25 140 2 44 32 35 11 -16 -39 -59 -58
-61 -94 -8 -145 20 -19 41 -35 47 -35 20 0 39 18 32 29 -4 6 1 14 11 17 10 4
30 20 46 37 15 16 29 28 31 26 3 -2 -24 -36 -59 -74 -51 -56 -66 -68 -76 -57
-19 17 -105 15 -134 -4 -47 -31 -69 -82 -75 -174 -3 -47 -9 -85 -15 -85 -5 0
-15 32 -22 72 -29 177 -121 241 -282 197 -38 -11 -18 10 43 44 42 24 55 37 60
63 11 54 7 65 -35 113 -22 25 -38 46 -35 46 3 0 27 -12 54 -27 53 -29 81 -28
127 8 36 29 53 71 60 155 8 81 12 97 24 90 5 -3 9 -38 10 -78z m2266 53 c50
-15 136 -34 193 -41 l102 -13 0 -88 c0 -70 -3 -88 -16 -93 -9 -3 -55 -6 -104
-6 -97 0 -349 -39 -451 -70 -443 -135 -748 -316 -1040 -617 -104 -107 -254
-301 -320 -414 -151 -260 -271 -607 -304 -880 l-6 -45 -67 -17 c-37 -9 -107
-28 -157 -41 -49 -14 -91 -23 -94 -21 -6 7 18 183 45 315 102 510 332 938 708
1315 129 129 191 184 323 283 202 153 480 294 744 378 107 34 299 83 329 83
14 0 66 -12 115 -28z m843 3 c355 -72 784 -292 1047 -536 l60 -56 -100 -100
-100 -100 -75 64 c-307 265 -781 459 -1177 481 l-103 6 0 94 0 93 33 0 c53 0
205 30 255 49 60 24 67 24 160 5z m2322 -69 c-13 -14 -26 -23 -28 -20 -7 7 29
45 41 45 6 0 0 -11 -13 -25z m-140 -137 c-58 -56 -147 -145 -198 -197 -51 -53
-88 -86 -83 -75 10 21 370 374 381 374 3 0 -42 -46 -100 -102z m180 89 c0 -1
-91 -92 -202 -202 -112 -110 -180 -175 -153 -145 124 137 355 363 355 347z
m-937 -29 c59 -31 286 -230 281 -246 -2 -7 1 -10 7 -6 12 7 62 -38 122 -111
34 -43 29 -39 -38 25 -75 71 -74 66 5 -32 35 -42 35 -43 5 -20 -37 29 -336
306 -390 361 -38 40 -35 52 8 29z m-4003 -43 c-7 -9 -15 -13 -19 -10 -3 3 1
10 9 15 21 14 24 12 10 -5z m-80 -69 c0 -3 -4 -8 -10 -11 -5 -3 -10 -1 -10 4
0 6 5 11 10 11 6 0 10 -2 10 -4z m5590 -111 c81 -124 160 -258 160 -273 0 -12
0 -12 -130 -47 -52 -13 -98 -21 -103 -16 -10 10 -139 212 -162 254 l-16 28 88
83 c48 46 90 81 93 77 3 -3 34 -51 70 -106z m-1513 78 c2 -6 -33 -52 -78 -103
-70 -79 -79 -94 -67 -106 12 -12 26 -2 102 76 48 49 92 90 97 90 12 0 194
-175 221 -213 15 -21 18 -31 9 -40 -8 -8 -11 -7 -11 5 0 13 -39 48 -54 48 -3
0 3 -13 12 -29 16 -29 16 -31 -4 -58 -14 -19 -32 -29 -54 -31 l-34 -4 33 31
c36 34 38 59 4 72 -32 12 -83 -32 -83 -71 0 -59 92 -126 139 -101 40 22 33 10
-13 -20 -26 -17 -46 -35 -44 -39 6 -16 101 -120 109 -120 5 0 9 6 9 14 0 17
137 166 153 166 5 0 -18 -29 -51 -64 -84 -87 -79 -97 7 -12 l68 68 22 -28 c12
-15 20 -31 19 -34 -2 -4 -43 -49 -91 -101 l-89 -93 -77 79 c-43 44 -133 129
-202 189 -142 125 -259 237 -259 248 0 14 183 199 193 195 6 -2 12 -8 14 -14z
m-4117 -3 c0 -5 -5 -10 -11 -10 -5 0 -7 5 -4 10 3 6 8 10 11 10 2 0 4 -4 4
-10z m2578 -105 c175 -14 529 -152 720 -279 88 -58 226 -174 230 -192 8 -32
-36 -10 -132 68 -237 191 -474 306 -758 368 -78 17 -156 35 -173 40 -28 8 -27
9 10 5 22 -3 68 -7 103 -10z m2772 -80 c0 -2 -10 -10 -22 -16 -21 -11 -22 -11
-9 4 13 16 31 23 31 12z m-5557 -39 c-49 -62 -73 -86 -85 -86 -7 0 -3 6 8 14
11 8 33 35 49 60 16 25 32 43 37 40 5 -3 0 -15 -9 -28z m-318 4 c10 -11 16
-20 13 -20 -3 0 -13 9 -23 20 -10 11 -16 20 -13 20 3 0 13 -9 23 -20z m2470 1
c24 -10 27 -14 15 -22 -12 -8 -11 -9 5 -5 21 5 73 -29 61 -41 -3 -4 6 -15 21
-26 16 -10 20 -17 11 -13 -22 7 -24 -10 -2 -18 9 -4 14 -13 10 -21 -3 -8 -1
-15 4 -15 6 0 10 -5 10 -11 0 -6 -8 -8 -17 -5 -16 5 -16 5 -2 -6 9 -8 15 -27
14 -51 -1 -29 3 -41 19 -49 12 -6 24 -16 28 -22 5 -7 8 -3 9 9 1 16 2 15 8 -5
5 -14 8 -137 9 -272 l0 -246 -27 0 c-41 0 -71 -6 -71 -13 0 -3 -20 -14 -45
-25 -25 -10 -45 -22 -45 -26 0 -4 -7 -8 -16 -8 -8 0 -13 -4 -9 -9 3 -6 -4 -15
-15 -21 -11 -6 -18 -15 -15 -20 3 -5 -3 -15 -13 -22 -10 -7 -24 -23 -31 -35
-6 -13 -18 -23 -26 -23 -8 0 -12 -6 -9 -14 3 -9 -3 -17 -15 -21 -12 -4 -18
-12 -14 -21 3 -7 0 -14 -7 -14 -6 0 -8 -5 -4 -12 5 -8 2 -9 -10 -5 -10 4 -16
2 -15 -6 3 -28 -2 -36 -31 -42 -16 -4 -32 -10 -35 -15 -3 -4 4 -6 14 -3 17 4
20 0 19 -26 -1 -21 -6 -31 -17 -32 -13 -1 -13 -2 2 -6 27 -7 20 -21 -15 -29
-18 -4 -36 -8 -40 -8 -3 -1 -10 -4 -14 -8 -4 -4 -13 -3 -21 3 -8 7 -13 8 -13
1 0 -5 -53 -24 -117 -42 -65 -17 -138 -38 -163 -45 -25 -8 -57 -16 -72 -19
-15 -2 -67 -17 -115 -31 -92 -28 -109 -33 -158 -42 -16 -2 -35 -9 -41 -14 -7
-5 -16 -9 -20 -8 -5 1 -16 -1 -24 -4 -32 -13 -280 -74 -284 -70 -2 2 -2 29 0
60 6 82 -11 131 -62 180 -50 49 -101 67 -144 51 -17 -5 -30 -13 -30 -17 0 -4
-9 -17 -20 -29 -12 -12 -18 -22 -15 -22 3 0 -1 -10 -9 -22 -9 -12 -16 -32 -16
-45 0 -12 -4 -24 -10 -28 -5 -3 -7 -12 -3 -20 3 -8 1 -15 -3 -15 -5 0 -9 -39
-9 -88 0 -51 -5 -92 -11 -99 -14 -14 -182 -58 -191 -50 -8 9 42 210 86 344 42
127 141 338 219 468 26 44 54 91 62 105 8 13 20 29 26 35 6 5 38 44 71 85 84
104 252 263 359 338 125 88 347 202 484 247 235 78 465 110 545 76z m-2445
-48 c0 -5 -34 -51 -75 -103 -41 -52 -105 -146 -142 -207 -62 -106 -83 -131
-83 -100 0 21 128 217 209 319 70 89 91 110 91 91z m5101 -20 c13 -16 12 -17
-3 -4 -10 7 -18 15 -18 17 0 8 8 3 21 -13z m-684 -8 c7 -11 -20 -45 -107 -133
-115 -116 -427 -444 -509 -534 -24 -26 -48 -46 -54 -45 -7 1 -11 -3 -10 -9 4
-19 -50 -61 -101 -78 -27 -9 -51 -14 -53 -12 -10 10 795 826 814 826 7 0 16
-7 20 -15z m502 -75 c-13 -23 -25 -36 -27 -30 -2 6 3 19 13 29 9 11 17 28 18
40 1 12 5 17 10 12 6 -6 0 -26 -14 -51z m-4725 25 c-9 -14 -18 -25 -21 -25 -5
0 5 18 20 38 17 22 18 13 1 -13z m5566 -53 c64 -89 66 -92 48 -92 -16 0 -129
155 -120 164 11 11 17 5 72 -72z m939 34 c16 -15 19 -38 24 -219 4 -111 3
-461 -1 -777 l-7 -575 -23 -47 c-33 -66 -101 -139 -160 -171 -27 -15 -112 -43
-188 -62 -129 -33 -379 -100 -919 -246 -302 -81 -722 -193 -885 -235 -74 -19
-182 -48 -240 -64 -58 -16 -193 -52 -300 -80 -107 -28 -294 -79 -415 -112
-476 -129 -811 -218 -827 -218 -13 0 -18 8 -18 29 0 36 -10 32 380 136 157 42
350 94 430 116 129 36 599 161 785 209 39 10 149 39 245 65 96 25 236 62 310
82 74 19 189 50 255 68 66 18 181 49 255 68 400 106 630 168 675 182 28 8 114
31 193 50 78 19 162 44 187 56 71 33 131 93 167 167 l33 67 2 660 c1 390 -2
675 -7 696 -6 19 -21 46 -35 59 -32 30 -103 33 -190 8 -296 -85 -516 -145
-640 -175 -33 -8 -123 -32 -200 -53 -77 -21 -232 -64 -345 -95 -113 -31 -338
-94 -500 -140 -162 -46 -396 -111 -520 -145 -124 -33 -310 -86 -415 -117 -318
-93 -966 -271 -1017 -280 -37 -5 -38 -5 -38 25 0 28 4 32 43 42 23 6 87 24
142 40 55 15 195 54 310 85 116 31 406 113 645 180 239 68 550 156 690 195
140 40 298 85 350 100 52 16 133 38 180 50 47 12 139 37 205 55 66 19 208 57
315 86 164 43 463 125 860 235 97 27 179 27 209 0z m-1549 -31 c13 -14 21 -25
18 -25 -2 0 -15 11 -28 25 -13 14 -21 25 -18 25 2 0 15 -11 28 -25z m513 18
c-15 -5 -18 -24 -4 -20 15 4 51 -45 51 -69 0 -18 4 -22 17 -17 11 4 14 3 9 -5
-10 -16 -113 -45 -127 -36 -7 4 -9 3 -6 -3 3 -5 -30 -19 -75 -30 l-80 -22 73
77 c41 42 79 80 86 85 13 8 33 -20 33 -45 0 -8 9 -14 20 -15 27 -2 25 12 -6
52 -27 35 -25 56 4 54 11 0 12 -3 5 -6z m-363 -127 c0 -13 -54 39 -93 89 -24
32 -18 28 31 -20 34 -33 62 -64 62 -69z m-840 110 c0 -2 -8 -10 -17 -17 -16
-13 -17 -12 -4 4 13 16 21 21 21 13z m-4337 -51 c-3 -9 -8 -14 -10 -11 -3 3
-2 9 2 15 9 16 15 13 8 -4z m4231 -57 c-39 -40 -91 -93 -115 -118 -24 -25 -96
-95 -159 -155 -110 -105 -112 -106 -36 -25 87 93 368 370 376 370 2 0 -27 -33
-66 -72z m247 41 l22 -31 -227 -224 c-134 -133 -235 -224 -246 -224 -10 0 -25
-6 -32 -13 -12 -11 -118 -49 -118 -42 0 9 557 565 567 565 6 0 22 -14 34 -31z
m-3161 7 c0 -2 -7 -7 -16 -10 -8 -3 -12 -2 -9 4 6 10 25 14 25 6z m3280 -130
c0 -13 -179 -196 -192 -196 -4 0 -30 -21 -58 -47 -42 -39 -105 -72 -140 -73
-3 0 76 81 175 180 169 169 180 178 197 163 10 -9 18 -21 18 -27z m453 -41
c-3 -9 -8 -14 -10 -11 -3 3 -2 9 2 15 9 16 15 13 8 -4z m-5530 -53 c-8 -5 -3
-14 16 -27 108 -72 60 -245 -67 -245 -34 0 -110 48 -128 81 -18 32 -17 84 0
118 25 48 69 67 181 80 6 0 5 -3 -2 -7z m3128 -34 c1 -17 2 -19 6 -5 5 21 23
23 23 2 0 -8 4 -15 9 -15 5 0 7 10 4 23 -5 22 -4 22 17 -3 21 -24 21 -24 15
-2 -4 13 -2 22 4 22 6 0 11 -3 11 -7 0 -5 3 -18 6 -31 5 -19 3 -22 -17 -20
-16 2 -24 -2 -25 -15 -1 -12 0 -13 3 -2 5 18 19 20 26 3 4 -10 8 -9 16 2 13
18 24 8 15 -14 -4 -10 -14 -16 -23 -13 -13 3 -17 -3 -16 -22 0 -19 6 -27 23
-29 19 -3 21 -6 11 -18 -9 -11 -8 -14 4 -14 9 0 19 5 23 11 5 8 10 6 16 -5 5
-9 13 -14 17 -11 5 2 11 -4 14 -15 6 -24 -11 -38 -19 -16 -3 9 -10 13 -15 10
-5 -3 -7 -9 -4 -14 3 -5 1 -11 -4 -15 -6 -3 -15 4 -21 15 -6 11 -16 20 -23 19
-9 0 -9 -2 1 -6 14 -5 17 -33 3 -33 -5 0 -11 6 -13 12 -3 9 -9 8 -21 -4 -21
-21 -22 -35 -1 -17 13 10 17 10 25 -2 26 -39 33 -56 30 -83 -2 -17 1 -26 7
-22 6 3 8 15 5 26 -3 11 0 20 6 20 6 0 12 -10 12 -22 1 -20 2 -20 6 -4 3 12
-3 25 -17 36 -23 17 -23 18 -4 43 21 30 34 34 34 12 0 -8 -4 -15 -10 -15 -5 0
-10 -7 -10 -15 0 -8 5 -15 11 -15 5 0 8 4 4 9 -9 15 16 25 26 10 6 -9 7 -1 3
21 -5 33 -5 34 10 16 14 -17 16 -18 16 -3 0 9 -4 17 -9 17 -11 0 -22 38 -12
44 4 3 15 -9 25 -25 10 -17 20 -29 22 -26 6 5 -29 91 -40 99 -6 4 -7 10 -2 15
4 4 12 0 17 -9 5 -9 17 -24 26 -33 9 -9 16 -33 16 -55 0 -24 5 -41 13 -44 16
-6 19 -26 5 -26 -5 0 -16 7 -25 15 -17 18 -30 20 -20 4 3 -6 0 -15 -7 -20 -10
-7 -7 -8 10 -7 13 2 26 -3 29 -11 3 -10 0 -12 -11 -8 -9 3 -18 1 -21 -6 -3 -9
-7 -9 -14 1 -6 9 -9 0 -10 -28 -1 -23 2 -39 7 -35 5 3 12 1 15 -4 6 -9 -15
-21 -36 -21 -6 0 -8 15 -6 35 2 19 0 35 -4 35 -4 0 -8 -21 -8 -46 0 -27 4 -43
10 -39 6 3 10 1 10 -4 0 -6 -2 -11 -4 -11 -2 0 -12 -3 -21 -6 -12 -5 -16 -2
-15 12 4 33 0 54 -9 54 -4 0 -5 -18 -1 -40 4 -22 5 -42 2 -45 -10 -10 -22 -5
-22 11 0 8 -5 12 -10 9 -6 -4 -8 -11 -5 -16 4 -5 -1 -9 -9 -9 -12 0 -14 7 -9
32 4 21 3 29 -5 24 -6 -3 -14 -2 -17 4 -4 6 -15 8 -26 5 -13 -4 -19 -2 -19 9
0 10 -6 13 -15 10 -8 -4 -15 -2 -15 4 0 6 6 13 13 15 6 3 2 6 -10 6 -13 1 -23
6 -23 12 0 5 4 8 9 5 5 -4 11 0 14 6 5 14 40 -16 49 -42 3 -10 6 -11 11 -3 4
6 0 18 -8 26 -17 18 -20 37 -4 37 5 0 7 5 3 11 -4 8 -9 7 -16 -2 -7 -11 -11
-11 -15 -1 -6 15 -24 16 -20 1 1 -6 -3 -13 -10 -16 -8 -3 -12 16 -12 64 0 37
-1 93 -2 123 -2 97 1 130 11 130 6 0 11 -10 11 -22z m119 2 c0 -5 6 -10 13
-10 9 0 14 -12 15 -30 0 -16 -3 -30 -8 -30 -5 0 -11 14 -15 30 -4 17 -11 30
-16 30 -5 0 -9 5 -9 10 0 6 5 10 10 10 6 0 10 -4 10 -10z m-2957 -35 c-3 -9
-8 -14 -10 -11 -3 3 -2 9 2 15 9 16 15 13 8 -4z m4902 5 c-27 -12 -43 -12 -25
0 8 5 22 9 30 9 10 0 8 -3 -5 -9z m-1885 -10 c0 -5 -4 -10 -10 -10 -5 0 -10 5
-10 10 0 6 5 10 10 10 6 0 10 -4 10 -10z m3237 -29 c176 -81 282 -271 283
-504 0 -272 -172 -543 -424 -666 -45 -22 -146 -58 -226 -80 -80 -23 -153 -44
-162 -47 -17 -5 -18 29 -18 624 l0 629 110 33 c145 42 190 49 285 46 66 -2 92
-8 152 -35z m-3157 -21 c21 -25 26 -50 10 -50 -5 0 -10 4 -10 9 0 5 -14 24
-31 41 -24 23 -34 28 -40 18 -4 -7 -11 -9 -14 -6 -4 4 -1 13 6 21 16 16 48 3
79 -33z m-3182 -118 c-34 -72 -63 -130 -65 -128 -2 2 15 43 37 92 51 110 83
174 87 170 2 -2 -25 -62 -59 -134z m3022 98 c0 -5 -4 -10 -10 -10 -5 0 -10 5
-10 10 0 6 5 10 10 10 6 0 10 -4 10 -10z m194 -71 c-8 -13 -24 -1 -24 18 0 13
3 13 15 3 8 -7 12 -16 9 -21z m2394 -616 l-3 -627 -127 -32 c-93 -23 -130 -28
-136 -20 -5 6 -48 76 -94 156 -126 214 -158 265 -165 262 -3 -1 -5 -111 -4
-245 2 -191 -1 -246 -11 -254 -10 -8 -213 -63 -233 -63 -3 0 -4 278 -3 618 l3
617 95 31 c159 51 146 52 175 -7 23 -44 144 -248 222 -372 14 -22 27 -36 31
-32 4 4 9 124 12 268 l5 262 94 27 c52 16 97 30 99 33 3 3 14 5 24 5 17 0 18
-24 16 -627z m-2390 586 c-2 -6 -8 -10 -13 -10 -5 0 -11 4 -13 10 -2 6 4 11
13 11 9 0 15 -5 13 -11z m-168 -19 c0 -5 -4 -10 -10 -10 -5 0 -10 5 -10 10 0
6 5 10 10 10 6 0 10 -4 10 -10z m130 -76 c0 -3 -7 -12 -15 -21 -20 -19 -32 -9
-15 12 12 15 30 20 30 9z m-3258 -66 c-7 -7 -12 -8 -12 -2 0 14 12 26 19 19 2
-3 -1 -11 -7 -17z m3075 -23 c8 -9 13 -19 10 -22 -6 -5 -37 21 -37 31 0 10 11
6 27 -9z m-3094 -30 c-3 -9 -8 -14 -10 -11 -3 3 -2 9 2 15 9 16 15 13 8 -4z
m-318 -51 c83 -19 160 -37 173 -40 12 -2 22 -11 22 -20 0 -10 -6 -13 -19 -9
-10 3 -49 12 -87 20 -38 7 -93 20 -121 28 -29 8 -95 23 -148 32 -87 16 -104
23 -90 37 8 7 106 -10 270 -48z m5049 8 c0 -12 -1 -289 -2 -616 l-2 -594 -115
-28 c-63 -15 -116 -26 -117 -23 -2 2 -2 279 0 615 l2 611 71 18 c39 9 85 23
103 31 41 18 61 14 60 -14z m-416 -704 l-3 -613 -95 -27 c-52 -15 -107 -30
-122 -33 l-28 -7 0 257 c0 141 -4 254 -8 251 -5 -3 -37 -78 -72 -168 -153
-393 -165 -423 -179 -423 -17 0 -200 359 -225 443 -18 58 -23 -8 -18 -237 5
-237 4 -249 -14 -259 -17 -9 -212 -62 -227 -62 -12 0 -8 1208 3 1215 6 3 62
21 125 39 81 23 118 30 124 22 16 -20 83 -158 156 -321 40 -88 76 -158 81
-157 5 2 39 86 76 185 109 292 159 421 168 431 10 10 217 75 243 76 16 0 17
-34 15 -612z m1429 310 c-1 -40 -3 -8 -3 72 0 80 2 112 3 73 2 -40 2 -106 0
-145z m-6277 173 c225 -28 347 -52 342 -67 -4 -11 -56 -8 -152 11 -41 8 -128
22 -194 30 -65 8 -121 16 -123 19 -11 11 10 26 30 21 12 -3 56 -9 97 -14z
m3030 9 c0 -5 -2 -10 -4 -10 -3 0 -8 5 -11 10 -3 6 -1 10 4 10 6 0 11 -4 11
-10z m5 -30 c3 -5 1 -10 -4 -10 -6 0 -11 5 -11 10 0 6 2 10 4 10 3 0 8 -4 11
-10z m395 -45 c0 -28 -4 -36 -22 -40 -13 -3 -41 -9 -63 -14 -65 -14 -770 -204
-1180 -317 -399 -111 -759 -209 -925 -253 -97 -26 -353 -96 -550 -151 -203
-56 -257 -71 -675 -180 -170 -44 -328 -88 -350 -98 -64 -27 -122 -87 -145
-148 -19 -53 -20 -75 -20 -707 0 -416 4 -665 10 -689 14 -50 52 -78 104 -78
22 0 102 15 176 34 153 38 1162 307 1375 366 77 21 223 61 325 89 102 27 302
82 445 121 336 92 536 146 820 221 127 33 329 87 450 120 121 32 223 59 228
59 15 0 7 -59 -10 -68 -10 -5 -130 -39 -268 -76 -137 -37 -313 -85 -390 -106
-77 -21 -171 -46 -210 -55 -38 -10 -167 -44 -285 -77 -118 -33 -282 -78 -365
-100 -82 -22 -195 -53 -250 -68 -103 -28 -395 -107 -615 -165 -69 -18 -215
-58 -325 -88 -110 -31 -279 -76 -375 -101 -96 -26 -209 -56 -250 -67 -41 -12
-158 -43 -260 -70 -102 -27 -213 -56 -248 -66 -61 -17 -64 -17 -100 2 l-37 20
-3 780 c-3 870 -6 827 67 908 45 50 84 67 273 116 155 40 386 102 623 166 72
19 218 58 325 86 107 28 249 66 316 85 66 18 228 62 360 98 131 35 329 89 439
120 175 49 662 181 1240 336 99 27 209 57 245 68 94 29 100 29 100 -13z
m-3393 -82 c-3 -10 -5 -4 -5 12 0 17 2 24 5 18 2 -7 2 -21 0 -30z m5270 -325
c-1 -68 -3 -15 -3 117 0 132 2 187 3 123 2 -64 2 -172 0 -240z m-5163 207 c88
-8 162 -18 165 -20 18 -18 -28 -22 -134 -10 -66 7 -169 16 -230 20 -118 8
-129 10 -119 27 7 12 48 9 318 -17z m-171 -32 c-7 -2 -19 -2 -25 0 -7 3 -2 5
12 5 14 0 19 -2 13 -5z m24 -30 c-3 -10 -5 -4 -5 12 0 17 2 24 5 18 2 -7 2
-21 0 -30z m120 -5 c-3 -8 -6 -5 -6 6 -1 11 2 17 5 13 3 -3 4 -12 1 -19z m240
-60 c-3 -7 -5 -2 -5 12 0 14 2 19 5 13 2 -7 2 -19 0 -25z m6783 19 c0 -2 -12
-14 -27 -28 l-28 -24 24 28 c23 25 31 32 31 24z m-6783 -59 c-3 -8 -6 -5 -6 6
-1 11 2 17 5 13 3 -3 4 -12 1 -19z m2468 -92 c0 -54 -2 -102 -5 -106 -5 -7
-56 -24 -157 -50 l-43 -11 0 -502 0 -502 -106 -27 c-59 -15 -110 -30 -113 -33
-3 -3 0 -15 7 -25 14 -22 1 -27 -16 -7 -8 9 -11 171 -12 522 0 280 -2 510 -4
513 -2 2 -38 -6 -78 -17 -41 -12 -80 -21 -86 -21 -8 0 -12 29 -12 99 0 118
-26 100 245 171 105 27 226 60 270 74 44 13 87 23 95 22 12 -1 15 -20 15 -100z
m-2478 27 c-3 -10 -5 -4 -5 12 0 17 2 24 5 18 2 -7 2 -21 0 -30z m-89 -18 c6
-3 12 -9 12 -15 0 -8 -66 -9 -227 -4 -126 4 -230 8 -232 10 -1 1 0 8 4 14 5 8
67 9 218 5 117 -4 218 -8 225 -10z m-151 -67 c-3 -8 -6 -5 -6 6 -1 11 2 17 5
13 3 -3 4 -12 1 -19z m6743 -23 c-14 -8 -29 -14 -35 -14 -5 0 1 6 15 14 14 8
30 14 35 14 6 0 -1 -6 -15 -14z m-1543 -27 c-3 -8 -6 -5 -6 6 -1 11 2 17 5 13
3 -3 4 -12 1 -19z m-5330 -70 c-2 -13 -4 -3 -4 22 0 25 2 35 4 23 2 -13 2 -33
0 -45z m360 -45 c-3 -10 -5 -2 -5 17 0 19 2 27 5 18 2 -10 2 -26 0 -35z m1627
4 c137 -64 206 -213 176 -384 -17 -102 -69 -191 -156 -272 -49 -44 -70 -71
-64 -77 6 -6 52 -84 104 -174 81 -141 93 -167 80 -177 -9 -6 -52 -21 -97 -33
-45 -11 -99 -28 -120 -37 -23 -10 -41 -13 -47 -7 -5 5 -47 77 -94 159 -47 83
-90 157 -95 165 -7 10 -10 -50 -10 -182 -1 -109 -3 -198 -6 -198 -2 0 -54 -14
-115 -30 -61 -17 -115 -30 -120 -30 -7 0 -10 213 -10 600 0 561 1 600 18 608
25 14 279 83 337 93 74 12 162 2 219 -24z m-2046 -14 c-21 -2 -55 -2 -75 0
-21 2 -4 4 37 4 41 0 58 -2 38 -4z m105 0 c-13 -2 -33 -2 -45 0 -13 2 -3 4 22
4 25 0 35 -2 23 -4z m277 -53 c0 -7 -203 -9 -592 -8 -326 1 -568 4 -538 8 92
11 1130 11 1130 0z m5007 -72 c-2 -18 -4 -6 -4 27 0 33 2 48 4 33 2 -15 2 -42
0 -60z m2443 72 c16 -5 -15 -8 -85 -8 -60 0 -119 3 -130 8 -26 11 180 11 215
0z m-8082 -125 l3 -40 -105 -32 c-59 -19 -117 -44 -134 -58 l-31 -26 -3 97
c-2 52 -1 98 1 100 3 3 64 3 135 2 l131 -3 3 -40z m7829 28 c20 -50 -39 -562
-92 -808 -120 -557 -390 -1142 -758 -1640 -32 -44 -61 -82 -63 -84 -3 -3 -17
11 -33 29 l-28 35 -37 -20 c-21 -11 -53 -33 -71 -48 l-34 -28 19 -31 19 -32
-42 -50 c-22 -28 -42 -52 -43 -54 -1 -2 -21 6 -43 18 -23 11 -45 19 -49 16 -4
-2 -21 -32 -37 -66 l-29 -61 34 -32 33 -31 -28 -21 c-15 -11 -73 -57 -128
-102 -129 -106 -346 -259 -489 -346 -152 -91 -417 -224 -558 -280 -198 -78
-533 -177 -548 -163 -3 3 3 30 13 61 9 30 21 84 25 119 4 36 11 69 14 74 3 6
25 13 49 17 70 11 283 84 432 147 220 93 500 250 705 396 131 94 196 149 385
330 357 342 567 623 747 1002 237 495 354 943 384 1467 l6 121 72 27 c39 14
82 32 96 40 34 19 69 19 77 -2z m-7578 3 c-12 -10 -60 -16 -54 -6 3 5 18 10
32 10 15 0 24 -2 22 -4z m5388 -48 c-3 -7 -5 -2 -5 12 0 14 2 19 5 13 2 -7 2
-19 0 -25z m400 26 c-3 -3 -12 -4 -19 -1 -8 3 -5 6 6 6 11 1 17 -2 13 -5z
m-4734 -201 c32 -104 94 -303 137 -443 112 -356 152 -491 148 -495 -4 -4 -188
-51 -221 -57 -15 -2 -24 13 -46 82 -32 100 -22 98 -195 50 l-113 -31 -27 -98
c-15 -53 -31 -102 -35 -109 -4 -7 -57 -26 -117 -42 -60 -15 -117 -31 -126 -35
-23 -9 -23 -8 12 110 17 55 51 172 76 260 25 88 95 329 156 535 61 206 113
383 115 393 4 11 31 25 82 41 42 13 81 25 86 25 6 1 37 -83 68 -186z m6214
121 c-3 -3 -12 -4 -19 -1 -8 3 -5 6 6 6 11 1 17 -2 13 -5z m-97 -57 c0 -11
-30 -16 -122 -20 -67 -4 -123 -9 -126 -11 -2 -3 -7 -47 -12 -98 l-7 -93 -2 71
c-2 136 2 141 114 154 105 13 155 11 155 -3z m-6820 -157 c0 -85 -3 -101 -17
-108 -10 -5 -84 -26 -165 -47 l-148 -39 0 -143 c0 -94 4 -143 11 -143 5 0 64
14 129 30 174 44 161 50 158 -72 l-3 -102 -145 -36 -145 -35 -3 -137 c-1 -76
1 -138 6 -138 5 0 67 16 138 35 71 20 137 34 148 33 18 -3 19 -11 18 -102 -1
-55 -5 -103 -9 -107 -5 -5 -47 -18 -93 -30 -47 -11 -166 -43 -264 -70 -99 -27
-181 -47 -183 -45 -8 7 -2 1201 5 1208 4 4 50 19 102 32 52 14 172 45 265 70
94 24 176 45 183 45 9 1 12 -25 12 -99z m4630 91 c0 -5 -7 -11 -15 -15 -15 -5
-20 5 -8 17 9 10 23 9 23 -2z m-40 -10 c0 -8 -81 -33 -88 -27 -2 2 16 10 40
19 24 8 44 15 46 16 1 0 2 -3 2 -8z m2069 -164 c125 -9 166 -15 169 -26 4 -12
-10 -13 -84 -6 -49 4 -125 9 -169 10 -122 5 -185 15 -185 29 0 9 15 12 53 9
28 -3 126 -10 216 -16z m-886 -35 c-9 -62 -52 -242 -80 -332 -85 -282 -241
-573 -440 -820 -89 -111 -285 -308 -393 -394 -296 -236 -692 -435 -1053 -527
l-79 -20 -67 32 c-98 46 -191 76 -278 89 -133 20 -123 15 -123 64 l0 43 128
12 c457 44 968 257 1308 546 286 244 507 544 632 860 38 96 93 278 107 358 4
20 12 40 17 43 17 11 313 91 320 87 4 -2 4 -20 1 -41z m-3943 -22 c-22 -30
-50 -55 -35 -29 12 18 48 59 52 59 3 0 -5 -13 -17 -30z m3475 -167 c-75 -283
-210 -532 -421 -774 -324 -373 -722 -612 -1189 -713 -66 -15 -130 -29 -142
-31 -13 -3 -23 -1 -23 4 0 4 19 11 43 14 45 6 44 6 162 37 186 49 575 228 567
260 -1 6 2 8 9 5 6 -4 28 7 49 24 21 17 42 31 45 31 10 0 78 52 108 84 15 15
27 25 27 21 0 -5 9 0 20 10 11 10 20 24 20 31 0 7 6 11 13 8 8 -3 22 7 33 21
10 14 24 25 31 25 16 0 17 12 2 27 -9 9 -7 10 10 6 15 -4 21 -1 21 11 0 9 6
16 14 16 8 0 16 7 20 15 3 8 13 15 21 15 9 0 13 5 10 11 -4 6 2 13 13 16 16 4
19 11 16 31 -3 20 -2 23 5 13 8 -12 12 -12 25 -2 9 8 16 20 16 27 0 8 5 14 10
14 6 0 10 7 10 16 0 8 4 13 9 9 5 -3 12 -1 16 5 3 5 1 10 -5 10 -6 0 -8 5 -5
10 4 6 10 8 14 5 10 -5 35 22 44 48 4 10 11 15 17 12 6 -4 10 7 11 27 0 18 3
27 6 20 2 -6 9 -10 13 -7 5 3 7 12 3 21 -3 9 0 14 7 12 15 -4 21 40 8 65 -5
11 -5 17 2 17 5 0 10 -6 10 -14 0 -15 24 -28 34 -19 3 3 -2 12 -12 19 -15 12
-14 14 13 15 17 1 23 3 13 6 -10 2 -18 9 -18 14 0 6 5 7 10 4 6 -3 10 1 10 9
0 10 9 16 22 16 17 0 19 3 10 12 -13 13 2 48 21 48 7 0 25 25 39 55 15 31 20
51 12 44 -11 -9 -14 -8 -14 5 0 9 5 16 11 16 6 0 9 7 5 15 -4 10 1 15 14 15
11 0 20 5 20 11 0 5 -4 7 -10 4 -5 -3 -10 -1 -10 4 0 6 7 11 16 11 14 0 14 2
-1 16 -14 15 -14 17 2 29 10 7 21 11 26 8 4 -2 5 8 1 23 -5 18 -3 25 4 20 6
-3 13 -2 17 4 3 5 1 10 -4 10 -6 0 -11 5 -11 10 0 6 7 10 15 10 8 0 15 5 15
11 0 5 -5 7 -11 3 -7 -4 -10 -1 -7 7 3 8 11 13 18 11 7 -2 9 5 5 18 -3 11 -2
20 3 20 15 0 22 53 9 69 -10 12 -9 14 6 8 9 -3 17 -2 17 3 0 11 34 18 38 8 2
-4 -8 -51 -23 -105z m-42 53 c-3 -4 -9 -2 -14 5 -13 22 -11 31 5 17 8 -7 12
-17 9 -22z m1275 -61 c93 -13 189 -29 213 -34 24 -5 47 -8 51 -5 4 3 8 -2 8
-12 0 -18 -2 -18 -190 11 -52 9 -135 21 -184 28 -53 7 -91 17 -94 25 -5 16 0
16 196 -13z m159 -1 c-3 -3 -12 -4 -19 -1 -8 3 -5 6 6 6 11 1 17 -2 13 -5z
m-1477 -24 c0 -5 -5 -10 -11 -10 -5 0 -7 5 -4 10 3 6 8 10 11 10 2 0 4 -4 4
-10z m1495 -50 c4 -6 -5 -10 -19 -10 -14 0 -26 5 -26 10 0 6 9 10 19 10 11 0
23 -4 26 -10z m-232 -117 c-7 -2 -19 -2 -25 0 -7 3 -2 5 12 5 14 0 19 -2 13
-5z m-2328 -23 c-3 -5 -14 -10 -23 -9 -14 0 -13 2 3 9 27 11 27 11 20 0z
m2260 -11 c50 -11 144 -31 210 -45 131 -28 141 -32 128 -45 -6 -6 -45 -1 -99
12 -49 12 -149 34 -223 48 -78 15 -136 31 -139 39 -5 17 17 15 123 -9z m-2315
-9 c-8 -5 -22 -9 -30 -9 -10 0 -8 3 5 9 27 12 43 12 25 0z m1040 -42 c0 -20
-18 -43 -27 -35 -4 5 -1 12 7 18 13 8 13 10 0 19 -13 8 -12 10 3 10 9 0 17 -6
17 -12z m-1213 -4 c-3 -3 -12 -4 -19 -1 -8 3 -5 6 6 6 11 1 17 -2 13 -5z
m1188 -54 c-3 -5 -11 -10 -16 -10 -6 0 -7 5 -4 10 3 6 11 10 16 10 6 0 7 -4 4
-10z m-65 -60 c0 -5 -2 -10 -4 -10 -3 0 -8 5 -11 10 -3 6 -1 10 4 10 6 0 11
-4 11 -10z m-15 -28 c-3 -3 -11 0 -18 7 -9 10 -8 11 6 5 10 -3 15 -9 12 -12z
m1271 -17 c41 -9 123 -32 182 -51 59 -19 124 -39 145 -45 20 -5 37 -15 37 -20
0 -15 -52 -5 -162 31 -49 16 -121 36 -161 45 -70 17 -137 41 -137 50 0 8 16 6
96 -10z m-1291 -5 c3 -5 1 -10 -4 -10 -6 0 -11 5 -11 10 0 6 2 10 4 10 3 0 8
-4 11 -10z m-1885 -50 c-8 -5 -24 -9 -35 -9 -16 1 -16 2 5 9 35 11 48 11 30 0z
m-1976 -26 c4 -10 1 -14 -6 -12 -15 5 -23 28 -10 28 5 0 13 -7 16 -16z m1913
10 c-3 -3 -12 -4 -19 -1 -8 3 -5 6 6 6 11 1 17 -2 13 -5z m-1870 -10 c-3 -3
-12 -4 -19 -1 -8 3 -5 6 6 6 11 1 17 -2 13 -5z m-157 -32 c0 -17 -27 -25 -240
-78 -17 -5 -22 -3 -15 4 6 5 42 17 80 26 39 9 91 22 118 28 26 7 47 18 47 25
0 7 2 13 5 13 3 0 5 -8 5 -18z m1863 1 c-7 -2 -19 -2 -25 0 -7 3 -2 5 12 5 14
0 19 -2 13 -5z m3594 -15 c-3 -8 -6 -5 -6 6 -1 11 2 17 5 13 3 -3 4 -12 1 -19z
m-1560 -34 c-3 -3 -12 -4 -19 -1 -8 3 -5 6 6 6 11 1 17 -2 13 -5z m1282 -55
c97 -31 181 -65 181 -74 0 -2 -16 3 -35 11 -50 21 -58 18 -50 -13 8 -36 29
-58 66 -73 35 -15 38 -30 5 -30 -31 0 -47 -20 -53 -70 -7 -47 -28 -53 -37 -9
-6 30 -46 79 -76 92 -12 5 -12 8 -2 13 36 17 72 58 72 82 0 25 -6 29 -80 51
-44 13 -85 30 -91 37 -16 19 -9 18 100 -17z m-3733 -4 c4 -8 10 -13 14 -10 16
10 42 -8 37 -26 -3 -11 0 -16 7 -13 6 2 12 -4 13 -15 1 -11 9 -31 18 -44 13
-21 22 -24 68 -21 28 1 73 11 100 23 26 11 47 18 47 15 0 -3 10 4 22 16 16 15
24 17 30 8 6 -10 8 -10 8 1 0 7 6 11 15 7 8 -3 15 -1 15 3 0 5 18 8 40 7 22 0
40 2 40 6 0 4 16 7 35 6 24 -1 35 -6 36 -17 0 -10 2 -12 6 -3 6 14 33 16 33 2
0 -5 7 -10 16 -10 11 0 14 -5 10 -16 -4 -12 -1 -14 14 -9 27 9 25 -9 -2 -24
l-23 -11 23 6 c12 3 22 1 22 -5 0 -6 -6 -11 -12 -12 -10 0 -10 -2 0 -6 6 -2
12 -9 12 -15 0 -6 -7 -8 -14 -5 -10 4 -13 1 -9 -9 3 -8 -1 -14 -11 -14 -9 0
-16 -5 -16 -10 0 -6 -11 -3 -25 6 -15 10 -25 12 -25 5 0 -6 -8 -11 -17 -11
-15 0 -16 -2 -3 -10 13 -9 13 -11 0 -20 -12 -8 -12 -10 5 -10 20 -1 20 -1 1
-15 -17 -13 -18 -15 -3 -15 9 0 17 -4 17 -10 0 -5 -7 -10 -15 -10 -8 0 -15 -5
-15 -10 0 -7 7 -7 21 0 25 14 41 3 16 -11 -9 -6 -17 -15 -17 -22 0 -9 2 -9 8
0 4 7 17 10 30 6 17 -4 21 -10 16 -27 -5 -19 -5 -19 7 -4 11 14 17 15 29 5 8
-7 15 -18 16 -24 1 -7 2 -26 3 -43 0 -19 6 -30 16 -30 13 0 15 -19 14 -120 0
-66 -5 -120 -10 -120 -5 0 -9 4 -9 8 0 5 -7 9 -15 9 -8 0 -15 -6 -15 -13 0
-11 -5 -11 -25 -2 -27 12 -33 28 -12 29 6 0 1 5 -12 10 -16 6 -28 6 -38 -2 -7
-7 -17 -9 -20 -5 -4 4 -2 11 6 15 10 6 9 10 -5 15 -10 4 -15 4 -11 0 7 -8 -10
-34 -23 -34 -5 0 -11 8 -13 18 -4 13 -5 12 -6 -5 -1 -18 -9 -23 -45 -28 -27
-4 -52 -2 -66 5 -12 6 -34 14 -48 16 -15 3 -45 13 -67 23 -25 11 -48 15 -60
10 -84 -33 -253 70 -230 140 3 11 2 22 -3 25 -6 3 -13 18 -17 33 -10 42 -51
91 -96 113 -21 11 -39 24 -40 28 -1 4 -3 36 -5 71 -3 48 -9 70 -24 86 l-21 22
47 42 c26 22 52 41 58 42 6 0 18 2 26 4 20 5 103 23 113 24 4 1 10 -6 13 -14z
m84 -25 c0 -5 -2 -10 -4 -10 -3 0 -8 5 -11 10 -3 6 -1 10 4 10 6 0 11 -4 11
-10z m2245 0 c3 -5 1 -10 -4 -10 -6 0 -11 5 -11 10 0 6 2 10 4 10 3 0 8 -4 11
-10z m35 0 c0 -5 -4 -10 -10 -10 -5 0 -10 5 -10 10 0 6 5 10 10 10 6 0 10 -4
10 -10z m-2645 -28 c-19 -16 -365 -352 -633 -614 -151 -148 -278 -265 -284
-262 -6 4 45 60 114 128 69 66 256 257 417 423 237 244 300 305 334 317 49 17
65 20 52 8z m4320 -47 c50 -19 83 -34 75 -35 -20 0 -172 50 -184 61 -19 18 20
8 109 -26z m-515 -25 c-6 -12 -14 -19 -17 -17 -2 3 1 15 7 27 6 12 14 19 17
17 2 -3 -1 -15 -7 -27z m-4091 -52 c-2 -2 -20 -16 -39 -33 l-35 -30 34 37 c19
21 37 36 39 33 3 -3 3 -6 1 -7z m4202 -110 c-72 -132 -81 -146 -130 -213 l-44
-59 20 -36 c11 -19 42 -48 69 -65 44 -28 54 -30 130 -28 82 3 122 -11 67 -22
-115 -24 -187 -131 -137 -203 21 -30 12 -39 -18 -18 -33 23 -53 20 -92 -14
-48 -42 -67 -98 -73 -213 -9 -151 -25 -137 -37 31 -6 87 -32 148 -82 192 -49
43 -80 40 -132 -13 -47 -48 -51 -70 -22 -127 23 -45 60 -68 125 -77 48 -6 72
-23 33 -23 -35 0 -68 -27 -68 -56 0 -18 -5 -24 -21 -24 -11 0 -34 -13 -50 -29
-22 -23 -29 -39 -29 -69 0 -58 -11 -103 -24 -99 -6 2 -14 32 -17 66 -7 70 -19
87 -89 124 -39 20 -45 27 -42 51 4 32 -22 66 -50 66 -10 0 -18 5 -18 11 0 7
11 8 33 3 48 -12 80 -9 111 11 30 20 66 82 66 116 0 12 15 39 34 60 70 76 69
170 -2 214 -47 30 -40 42 21 41 46 0 61 5 103 35 69 49 113 137 120 239 4 55
3 71 -5 60 -20 -28 -11 3 12 39 l22 36 7 -105 c3 -58 10 -116 15 -128 l9 -24
25 34 c28 36 161 260 180 302 8 17 16 23 22 17 6 -6 -10 -44 -42 -103z m-4565
33 c-15 -16 -29 -33 -29 -38 -1 -4 -5 -7 -8 -6 -4 1 -15 -7 -24 -17 -10 -11
-14 -20 -9 -20 4 0 -21 -29 -56 -65 -35 -36 -70 -65 -77 -65 -6 0 -16 -7 -20
-15 -5 -8 -60 -67 -122 -131 l-114 -116 -30 31 -31 30 30 22 c16 13 113 105
215 206 152 151 194 187 230 198 68 21 76 19 45 -14z m594 -17 c41 -35 148
-199 156 -239 15 -84 -54 -100 -165 -38 -62 34 -191 146 -191 165 0 16 133
138 151 138 10 0 31 -12 49 -26z m-320 13 c0 -1 -26 -27 -57 -57 l-58 -55 55
58 c50 53 60 62 60 54z m-822 -186 l-103 -99 -36 26 c-47 35 -109 90 -109 97
0 3 8 5 19 5 10 0 69 13 132 29 118 30 152 37 182 40 10 0 -27 -41 -85 -98z
m242 76 c0 -2 -10 -12 -22 -23 l-23 -19 19 23 c18 21 26 27 26 19z m301 -54
c-9 -17 -121 -128 -265 -263 -119 -111 -16 3 133 147 75 73 137 132 139 133 1
0 -2 -8 -7 -17z m84 -43 c-33 -33 -64 -60 -69 -60 -6 0 16 27 49 60 33 33 64
60 69 60 6 0 -16 -27 -49 -60z m356 -16 c19 -16 67 -54 107 -84 39 -29 72 -55
72 -57 0 -5 -9 0 -93 55 -83 54 -179 140 -171 153 3 6 16 0 29 -13 12 -13 38
-37 56 -54z m-1310 -16 c172 -117 387 -313 365 -335 -3 -3 -59 46 -124 108
-124 120 -312 265 -362 279 -46 13 -65 3 -148 -83 -134 -141 -379 -393 -633
-652 -135 -137 -260 -266 -277 -285 -28 -31 -31 -33 -32 -13 0 36 7 43 656
706 421 428 366 401 555 275z m5124 35 c-63 -97 -111 -162 -118 -163 -10 0 -2
14 44 73 21 26 48 65 60 87 13 22 26 40 31 40 4 0 -4 -17 -17 -37z m-4625 14
c0 -2 -19 -21 -42 -42 l-43 -40 40 43 c36 39 45 47 45 39z m-617 -28 c12 -7
23 -12 24 -13 1 -1 -156 -162 -350 -356 -194 -195 -433 -438 -531 -539 -134
-139 -180 -181 -187 -170 -13 20 -11 31 9 60 9 14 230 242 490 507 261 264
480 490 488 501 17 24 27 26 57 10z m220 -39 c19 -16 38 -30 42 -30 18 0 230
-192 247 -224 16 -29 -5 -13 -117 89 -55 50 -130 112 -167 138 -38 26 -68 50
-68 53 0 14 34 0 63 -26z m1066 -43 c331 -258 772 -421 1199 -444 l112 -6 0
-43 0 -43 -47 -6 c-150 -19 -268 -54 -385 -112 -37 -18 -73 -33 -81 -33 -24 0
-255 69 -354 106 -114 42 -337 147 -426 200 -157 94 -287 187 -287 206 0 11
199 218 209 218 3 0 30 -19 60 -43z m-1180 4 c17 -16 38 -31 46 -35 14 -5 14
-9 3 -25 -20 -29 -438 -466 -824 -863 l-221 -227 -54 48 -54 48 34 39 c55 64
968 998 998 1021 36 28 35 28 72 -6z m891 16 c0 -1 -64 -65 -142 -142 l-143
-140 140 143 c130 132 145 147 145 139z m-550 -61 c0 -8 -4 -17 -8 -20 -13 -8
-35 11 -28 23 10 16 36 14 36 -3z m-220 -49 c0 -8 -88 -105 -196 -218 -216
-226 -232 -245 -217 -260 8 -8 24 4 54 38 24 26 100 107 169 178 69 72 147
154 173 184 45 51 49 53 65 38 19 -19 25 -12 -257 -298 -79 -81 -141 -152
-137 -157 4 -6 -1 -15 -9 -20 -13 -7 -14 -10 -3 -18 10 -7 69 48 233 216 l220
226 23 -20 c12 -11 21 -23 20 -27 -2 -4 -82 -88 -178 -188 -96 -99 -193 -200
-215 -224 -22 -24 -34 -36 -27 -27 6 9 12 22 12 28 0 28 -32 6 -110 -75 -47
-49 -147 -152 -223 -230 l-139 -143 -57 0 c-97 0 -161 -64 -161 -162 0 -24 7
-55 16 -68 8 -14 -16 8 -55 49 -39 41 -71 78 -71 82 0 4 152 165 338 357 185
192 423 440 527 551 105 110 193 201 198 201 4 0 7 -6 7 -13z m4890 9 c0 -2
-8 -10 -17 -17 -16 -13 -17 -12 -4 4 13 16 21 21 21 13z m-3445 -16 c3 -6 -1
-7 -9 -4 -18 7 -21 14 -7 14 6 0 13 -4 16 -10z m815 0 c0 -5 -4 -10 -10 -10
-5 0 -10 5 -10 10 0 6 5 10 10 10 6 0 10 -4 10 -10z m-3060 -135 c12 -23 9
-28 -65 -110 -43 -47 -83 -84 -89 -82 -11 4 -135 172 -161 219 -19 33 -19 33
108 68 l102 28 46 -49 c25 -27 52 -60 59 -74z m2335 95 c3 -6 -1 -7 -9 -4 -18
7 -21 14 -7 14 6 0 13 -4 16 -10z m820 0 c3 -5 2 -10 -4 -10 -5 0 -13 5 -16
10 -3 6 -2 10 4 10 5 0 13 -4 16 -10z m-2395 -156 c-69 -69 -132 -129 -140
-134 -8 -5 46 54 120 130 74 76 137 137 139 134 3 -3 -51 -61 -119 -130z
m5456 111 c-20 -15 -36 -19 -36 -10 0 5 38 23 50 24 3 0 -4 -6 -14 -14z
m-5292 -140 c-32 -35 -60 -62 -63 -60 -5 6 100 122 112 124 5 0 -18 -28 -49
-64z m308 -54 c26 -30 46 -56 43 -59 -2 -2 -17 11 -32 29 -15 19 -49 57 -75
85 -27 28 -48 55 -48 60 0 5 15 -7 32 -26 17 -19 53 -59 80 -89z m20 87 c-7
-7 -12 -8 -12 -2 0 6 3 14 7 17 3 4 9 5 12 2 2 -3 -1 -11 -7 -17z m-292 -43
c-24 -25 -46 -42 -49 -40 -3 3 15 25 39 50 24 25 46 42 49 40 3 -3 -15 -25
-39 -50z m2197 13 c-3 -7 -5 -2 -5 12 0 14 2 19 5 13 2 -7 2 -19 0 -25z
m-2304 -194 c-98 -99 -191 -194 -206 -213 -15 -18 -30 -31 -33 -28 -3 3 38 50
90 105 204 212 317 324 322 319 3 -3 -75 -85 -173 -183z m399 7 c32 -42 58
-80 57 -86 0 -5 -8 1 -17 15 -9 13 -50 66 -89 116 -40 51 -73 96 -73 101 1 9
41 -39 122 -146z m-182 136 c0 -1 -46 -47 -102 -102 -56 -55 -100 -97 -98 -93
7 10 194 198 197 198 2 0 3 -1 3 -3z m4660 -7 c0 -5 -5 -10 -11 -10 -5 0 -7 5
-4 10 3 6 8 10 11 10 2 0 4 -4 4 -10z m75 -31 c20 -22 34 -43 31 -47 -4 -3
-13 3 -22 14 -8 10 -13 13 -9 7 10 -20 -7 -15 -39 10 -20 16 -27 29 -23 40 10
25 21 21 62 -24z m-4985 8 c0 -1 -37 -38 -82 -82 l-83 -80 80 83 c74 76 85 87
85 79z m4630 -104 c0 -7 -4 -13 -9 -13 -15 0 -92 90 -86 100 8 12 95 -68 95
-87z m-4696 -25 c-55 -57 -118 -125 -141 -153 -23 -27 -42 -47 -43 -43 -1 21
254 298 274 298 5 0 -35 -46 -90 -102z m-173 65 c-5 -10 -33 -40 -62 -68 -65
-62 -54 -38 15 32 56 57 61 62 47 36z m453 -125 c-66 -66 -186 -183 -269 -261
-82 -77 -275 -262 -428 -410 -271 -262 -279 -269 -298 -251 -22 20 -17 33 6
14 14 -12 43 13 228 196 117 116 259 255 317 309 58 55 204 197 325 317 120
119 223 214 228 211 5 -3 -44 -59 -109 -125z m196 37 c10 -12 4 -25 -38 -72
-61 -71 -341 -345 -557 -548 -88 -82 -190 -178 -227 -213 -37 -35 -71 -61 -76
-58 -5 3 -22 -9 -38 -27 l-29 -32 35 30 c22 19 17 11 -15 -23 -73 -79 -145
-136 -155 -126 -12 12 282 311 611 622 147 139 311 299 364 357 54 58 101 105
105 105 4 0 13 -7 20 -15z m48 -81 c3 -27 -20 -53 -245 -276 -233 -231 -339
-328 -360 -328 -14 0 -186 -153 -340 -304 -108 -105 -147 -137 -160 -132 -14
6 6 30 102 124 377 369 497 482 508 479 6 -1 11 4 9 11 -1 6 2 11 7 10 5 -2
46 38 92 87 126 136 363 365 374 361 6 -1 11 -16 13 -32z m5254 -9 c-2 -19 -6
-35 -8 -35 -2 0 -4 16 -4 35 0 19 4 35 8 35 4 0 6 -16 4 -35z m-5952 -30 c-30
-30 -57 -55 -61 -55 -8 0 103 109 111 110 2 0 -20 -25 -50 -55z m4880 31 c0
-11 -19 -15 -25 -6 -3 5 1 10 9 10 9 0 16 -2 16 -4z m-145 -56 c10 -11 16 -20
13 -20 -3 0 -13 9 -23 20 -10 11 -16 20 -13 20 3 0 13 -9 23 -20z m-3862 -97
l58 -106 -11 -52 c-7 -34 -20 -61 -38 -78 -28 -26 -405 -256 -637 -387 -71
-41 -166 -96 -209 -122 -44 -26 -88 -48 -98 -48 -18 0 -18 1 -1 25 10 14 29
28 43 31 48 12 524 282 755 427 188 118 188 118 116 284 -28 65 -51 121 -51
126 0 24 22 -6 73 -100z m3937 98 c0 -5 -7 -12 -16 -15 -14 -5 -15 -4 -4 9 14
17 20 19 20 6z m1444 -7 c3 -8 2 -12 -4 -9 -6 3 -10 10 -10 16 0 14 7 11 14
-7z m-594 -9 c10 -12 10 -15 -4 -15 -19 0 -20 -4 -5 -33 7 -16 3 -13 -15 8
-19 22 -22 32 -14 42 14 17 23 16 38 -2z m-3072 -33 c2 -18 -2 -40 -9 -48 -13
-16 -54 -20 -44 -4 3 6 1 10 -5 10 -6 0 -13 -7 -17 -16 -4 -11 -8 -12 -13 -4
-5 8 -21 10 -49 5 -23 -4 -39 -10 -36 -15 3 -4 -9 -13 -27 -19 -42 -15 -48
-13 -18 4 45 26 10 16 -64 -19 -221 -102 -369 -269 -449 -506 -36 -105 -38
-118 -43 -275 -6 -181 -5 -175 -26 -175 -29 0 -39 36 -45 153 -6 132 6 221 47
351 86 269 333 490 633 566 142 37 161 36 165 -8z m267 7 c85 -18 205 -70 280
-122 172 -118 308 -307 365 -507 22 -75 37 -278 24 -310 -4 -8 -8 -26 -10 -40
-10 -78 -15 -90 -38 -90 -30 0 -38 21 -31 74 9 63 13 256 5 256 -4 0 -15 37
-24 82 -10 46 -27 99 -37 120 -22 42 -24 63 -8 52 7 -4 0 13 -15 37 -14 24
-30 43 -36 42 -5 -2 -7 3 -4 11 3 7 -2 19 -11 26 -8 7 -15 9 -15 4 0 -5 -26
18 -58 51 -77 81 -133 125 -223 174 -95 52 -173 79 -247 85 -39 4 -49 3 -32
-3 24 -9 24 -9 -6 -10 -35 -1 -44 11 -44 64 0 33 1 34 38 28 20 -3 77 -14 127
-24z m3226 12 c94 -32 134 -58 197 -126 68 -75 125 -176 141 -253 23 -113 5
-250 -46 -344 -65 -120 -233 -243 -365 -268 -56 -11 -161 -5 -166 9 -2 5 -12
7 -23 4 -11 -3 -19 -2 -18 3 3 19 -2 28 -9 17 -11 -18 -124 43 -179 97 -65 63
-130 165 -153 239 -37 116 -23 257 35 371 32 63 144 174 207 206 128 66 271
83 379 45z m-1681 5 c0 -2 -7 -7 -16 -10 -8 -3 -12 -2 -9 4 6 10 25 14 25 6z
m-3575 -103 c42 -100 46 -135 20 -163 -18 -20 -221 -150 -320 -205 -27 -15
-72 -43 -100 -60 -27 -18 -111 -67 -185 -109 -74 -41 -151 -86 -170 -98 l-35
-23 45 55 c60 73 693 699 701 694 4 -2 23 -43 44 -91z m-860 77 c3 -5 2 -10
-4 -10 -5 0 -13 5 -16 10 -3 6 -2 10 4 10 5 0 13 -4 16 -10z m4365 -15 c0 -2
-10 -9 -22 -15 -22 -11 -22 -10 -4 4 21 17 26 19 26 11z m-4330 -25 c0 -5 -5
-10 -11 -10 -5 0 -7 5 -4 10 3 6 8 10 11 10 2 0 4 -4 4 -10z m1010 -41 c30
-20 79 -48 108 -63 28 -14 52 -29 52 -31 0 -12 -50 -4 -64 10 -8 9 -32 17 -53
18 -24 1 -44 9 -54 22 -50 65 -72 98 -59 89 8 -5 40 -25 70 -45z m-1060 -24
c-51 -52 -68 -61 -24 -12 33 37 56 57 63 57 3 0 -15 -20 -39 -45z m4971 14
c13 -17 34 -41 47 -52 23 -21 29 -37 13 -37 -11 0 -89 78 -102 102 -17 31 16
21 42 -13z m-2333 -41 c-2 -18 -14 -24 -70 -35 -197 -39 -402 -183 -479 -335
-37 -73 -77 -194 -89 -270 -24 -162 32 -363 144 -516 96 -130 271 -231 449
-257 44 -7 47 -9 47 -36 0 -16 -3 -29 -7 -29 -22 0 -164 31 -199 43 -227 81
-408 277 -470 507 -25 92 -25 302 -1 390 72 263 281 472 539 540 40 10 88 19
106 19 29 1 33 -2 30 -21z m210 6 c155 -37 330 -148 428 -272 136 -171 189
-422 134 -636 -39 -153 -139 -312 -258 -410 -61 -50 -192 -112 -286 -136 -110
-28 -126 -27 -126 8 0 27 2 29 87 45 149 29 305 120 394 230 51 64 113 191
135 277 25 98 16 302 -18 392 -65 173 -190 313 -355 396 -78 39 -113 50 -169
56 -68 7 -70 7 -72 36 -3 36 8 37 106 14z m2084 -1 c10 -9 18 -20 18 -25 0
-11 -49 24 -50 35 0 12 12 8 32 -10z m-816 -45 c4 -7 4 -10 -1 -6 -4 4 -30 -4
-57 -18 -60 -30 -98 -45 -98 -38 0 3 95 51 147 73 1 1 5 -5 9 -11z m1382 -10
c20 -12 30 -24 23 -26 -6 -2 -18 1 -26 8 -8 6 -23 9 -35 5 -22 -7 -23 -5 -14
19 8 20 10 20 52 -6z m993 -18 c-24 -21 -41 -26 -41 -12 0 5 12 13 28 19 39
15 40 15 13 -7z m-2311 -108 c18 -34 30 -65 26 -69 -8 -9 -7 -10 -60 86 -25
46 -43 88 -40 93 7 10 22 -12 74 -110z m188 73 c-3 -3 -9 2 -12 12 -6 14 -5
15 5 6 7 -7 10 -15 7 -18z m-2975 -14 c36 -16 117 -46 179 -66 62 -20 117 -41
123 -46 12 -12 0 -12 -23 0 -9 6 -57 22 -107 37 -49 15 -118 40 -153 56 -34
15 -67 28 -72 28 -5 0 -12 5 -15 10 -9 15 -4 13 68 -19z m-373 -18 c-11 -17
-11 -17 -6 0 3 10 6 24 7 30 0 9 2 9 5 0 3 -7 0 -20 -6 -30z m3424 22 c-10 -8
-23 -15 -28 -15 -6 0 -1 7 10 15 10 8 23 15 28 15 6 0 1 -7 -10 -15z m-4584 1
c0 -2 -8 -10 -17 -17 -16 -13 -17 -12 -4 4 13 16 21 21 21 13z m4978 -21 c-3
-3 -9 2 -12 12 -6 14 -5 15 5 6 7 -7 10 -15 7 -18z m-2228 4 c-84 -22 -112
-31 -108 -34 1 -2 28 3 58 11 79 20 80 20 80 -30 0 -43 -1 -44 -37 -51 -21 -4
-42 -10 -48 -15 -5 -4 -23 -10 -39 -14 -41 -10 -153 -84 -207 -138 -73 -71
-129 -206 -129 -308 1 -152 57 -293 160 -401 36 -38 62 -69 59 -69 -9 0 -58
38 -103 79 -23 22 -34 28 -28 16 33 -63 164 -150 295 -195 109 -38 75 -55 -47
-24 -222 57 -386 242 -431 485 -21 114 -15 185 24 285 58 149 179 287 304 348
75 37 164 65 207 64 20 0 18 -2 -10 -9z m238 -17 c84 -27 211 -97 198 -109 -3
-3 -14 1 -23 9 -38 33 -156 86 -218 98 -36 7 -65 16 -65 21 0 14 13 11 108
-19z m1540 3 c-3 -3 -9 2 -12 12 -6 14 -5 15 5 6 7 -7 10 -15 7 -18z m231 -19
c-3 -3 -11 5 -18 17 -13 21 -12 21 5 5 10 -10 16 -20 13 -22z m-1799 -6 c118
-29 300 -162 313 -228 3 -15 15 -39 27 -53 20 -23 21 -23 10 -1 -7 15 -8 22 0
22 14 0 31 -44 19 -48 -18 -7 -8 -20 11 -15 11 3 20 1 20 -5 0 -6 3 -18 6 -26
5 -12 2 -15 -10 -10 -9 4 -16 1 -16 -6 0 -6 9 -14 20 -17 11 -3 20 -10 20 -15
0 -6 -6 -8 -13 -5 -11 4 -11 -6 0 -57 7 -33 13 -81 13 -106 0 -57 -32 -176
-66 -243 -27 -52 -107 -144 -159 -180 -23 -17 -17 -6 26 48 72 90 102 144 129
230 55 179 5 382 -124 510 -70 70 -131 104 -233 130 l-73 19 0 39 c0 32 3 37
18 33 9 -3 37 -10 62 -16z m-3020 -3 c0 -2 -12 -14 -27 -28 l-28 -24 24 28
c23 25 31 32 31 24z m4525 -7 c-3 -5 -11 -10 -16 -10 -6 0 -7 5 -4 10 3 6 11
10 16 10 6 0 7 -4 4 -10z m-565 -10 c0 -5 -2 -10 -4 -10 -3 0 -8 5 -11 10 -3
6 -1 10 4 10 6 0 11 -4 11 -10z m234 -59 c37 -61 45 -86 24 -79 -14 5 -78 117
-78 136 0 22 17 4 54 -57z m-4807 -112 c139 -138 185 -189 168 -189 -9 0 -355
345 -355 353 0 18 41 -19 187 -164z m4563 104 c0 -3 -9 6 -20 20 -11 14 -20
31 -20 39 0 7 9 -2 20 -20 11 -18 20 -35 20 -39z m904 51 c5 -14 4 -15 -9 -4
-17 14 -19 20 -6 20 5 0 12 -7 15 -16z m-2394 1 c0 -2 -21 -26 -46 -52 -50
-52 -49 -41 0 19 28 34 46 47 46 33z m1400 -15 c-8 -5 -19 -10 -25 -10 -5 0
-3 5 5 10 8 5 20 10 25 10 6 0 3 -5 -5 -10z m-4579 -103 c58 -56 134 -136 169
-177 35 -41 89 -102 119 -134 l56 -60 -69 60 c-76 65 -372 369 -387 397 -20
36 9 14 112 -86z m659 90 c0 -2 -10 -12 -22 -23 l-23 -19 19 23 c18 21 26 27
26 19z m1976 -46 c-22 -41 -29 -40 -11 3 8 18 13 36 11 38 -2 3 1 2 6 -2 6 -5
3 -20 -6 -39z m-2192 8 c70 -55 70 -160 1 -205 -16 -11 -46 -16 -81 -16 -54 0
-55 0 -38 -19 9 -10 15 -21 12 -24 -8 -9 -30 20 -72 96 l-18 34 35 -37 c34
-37 53 -44 117 -38 14 1 33 6 42 11 20 11 52 68 44 77 -3 3 -6 1 -6 -5 0 -6
-13 -25 -29 -42 -53 -57 -150 -35 -172 39 -30 100 86 191 165 129z m96 0 c0
-6 -4 -7 -10 -4 -5 3 -10 11 -10 16 0 6 5 7 10 4 6 -3 10 -11 10 -16z m3475
-27 c-6 -6 -35 18 -35 29 0 5 9 1 20 -8 11 -9 17 -19 15 -21z m573 13 c-3 -3
-9 2 -12 12 -6 14 -5 15 5 6 7 -7 10 -15 7 -18z m111 -34 c6 -19 9 -36 7 -38
-2 -2 -11 17 -20 44 -9 26 -12 43 -7 38 4 -6 13 -25 20 -44z m-4139 19 c0 -5
-2 -10 -4 -10 -3 0 -8 5 -11 10 -3 6 -1 10 4 10 6 0 11 -4 11 -10z m1370 0 c0
-6 -21 -42 -47 -82 -60 -89 -70 -66 -12 26 38 61 59 81 59 56z m1635 0 c7 -11
5 -12 -75 -30 -143 -33 -237 -125 -281 -275 -45 -148 -7 -294 104 -407 56 -56
123 -95 197 -114 26 -6 46 -18 48 -27 3 -14 -2 -14 -46 -2 -70 18 -162 69
-212 117 -242 233 -157 613 162 728 60 22 94 25 103 10z m178 -9 c111 -38 208
-127 267 -245 33 -66 35 -75 33 -165 -1 -79 -6 -108 -28 -164 -48 -119 -171
-229 -298 -268 -34 -10 -63 -16 -65 -14 -13 12 11 33 43 38 123 20 259 149
303 286 33 104 17 235 -39 327 -49 81 -210 194 -276 194 -14 0 -23 6 -23 15 0
20 15 19 83 -4z m887 -64 c0 -10 5 -27 10 -38 6 -10 7 -19 2 -19 -5 0 -16 24
-26 53 -9 28 -20 59 -23 67 -2 8 5 2 16 -15 12 -16 21 -38 21 -48z m1733 59
c7 -18 -1 -26 -25 -26 -20 0 -25 26 -5 33 20 9 25 8 30 -7z m-1130 -28 c9 -18
28 -52 43 -75 21 -34 23 -43 10 -43 -16 0 -106 130 -99 143 9 16 30 5 46 -25z
m-5305 -39 c1 -8 -29 -43 -68 -78 -54 -48 -74 -61 -83 -52 -8 8 6 29 58 81 68
68 87 78 93 49z m4856 -1 c-3 -4 -12 -8 -20 -8 -8 0 -14 4 -14 8 0 4 9 8 19 8
11 0 17 -4 15 -8z m-1255 -35 c29 -25 33 -35 42 -107 9 -72 8 -82 -9 -105 -10
-14 -34 -34 -53 -44 -33 -18 -41 -18 -174 -4 -13 1 -28 19 -44 50 l-23 47 22
54 c47 117 164 171 239 109z m-2435 3 c-3 -7 -98 -101 -211 -207 -199 -187
-243 -226 -243 -215 0 5 452 436 457 436 1 0 0 -6 -3 -14z m2223 -35 c-80 -89
-85 -155 -17 -223 30 -30 34 -38 19 -38 -26 0 -70 63 -79 112 -9 50 9 95 63
152 47 49 58 46 14 -3z m-3290 -23 c29 -29 53 -56 53 -61 0 -5 -27 -39 -60
-75 -33 -37 -60 -72 -60 -78 0 -6 12 -21 26 -33 l26 -23 -32 -33 -33 -34 -38
30 c-61 48 -219 221 -226 247 -11 45 8 35 90 -44 45 -44 93 -89 106 -99 l24
-20 -19 30 c-10 17 -32 47 -48 67 -16 21 -27 39 -25 41 2 1 37 33 77 70 40 37
76 67 79 67 4 0 31 -23 60 -52z m2173 42 c8 -5 11 -10 5 -10 -5 0 -17 5 -25
10 -8 5 -10 10 -5 10 6 0 17 -5 25 -10z m2809 -45 c0 -5 -6 1 -14 15 -8 14
-14 30 -14 35 0 6 6 -1 14 -15 8 -14 14 -29 14 -35z m29 30 c-3 -3 -9 2 -12
12 -6 14 -5 15 5 6 7 -7 10 -15 7 -18z m-3336 -74 c84 -44 209 -103 278 -131
123 -50 390 -136 502 -160 l56 -13 12 -79 c6 -43 17 -100 25 -125 8 -26 12
-50 10 -54 -5 -7 -290 63 -415 104 -132 42 -332 125 -470 195 -142 71 -318
170 -359 201 l-25 19 53 28 c29 16 76 43 104 60 29 18 58 32 64 33 7 1 81 -35
165 -78z m353 50 c-3 -6 -11 -11 -16 -11 -5 0 -4 6 3 14 14 16 24 13 13 -3z
m2095 -1 c6 -11 8 -20 6 -20 -3 0 -10 9 -16 20 -6 11 -8 20 -6 20 3 0 10 -9
16 -20z m674 -59 c-6 -6 -11 1 -18 29 l-7 25 15 -25 c8 -14 12 -27 10 -29z
m-50 21 c3 -5 -1 -9 -9 -9 -8 0 -15 4 -15 9 0 4 4 8 9 8 6 0 12 -4 15 -8z
m-69 -12 c-3 -5 -12 -10 -20 -10 -7 0 -16 -10 -18 -22 l-4 -23 -2 23 c-1 15 7
26 22 32 29 12 29 12 22 0z m-2159 -21 c4 -7 1 -10 -7 -7 -8 3 -19 -2 -26 -11
-10 -14 -11 -13 -6 7 6 23 27 30 39 11z m-305 -26 c-12 -20 -14 -14 -5 12 4 9
9 14 11 11 3 -2 0 -13 -6 -23z m2603 -3 c8 -16 11 -30 6 -30 -4 0 -13 14 -19
30 -5 17 -8 30 -6 30 2 0 10 -13 19 -30z m-2557 -5 c-15 -16 -19 -13 -11 9 3
9 10 13 15 10 5 -3 3 -11 -4 -19z m2529 -40 c9 -39 0 -30 -15 15 -6 19 -7 30
-2 25 5 -6 13 -23 17 -40z m-5146 -21 c0 -8 5 -14 11 -14 5 0 7 -5 3 -11 -4
-8 -9 -7 -15 2 -9 16 -53 -75 -75 -156 -14 -52 -11 -74 5 -34 26 69 53 118 81
149 l30 35 79 -85 c80 -86 97 -114 41 -66 -17 14 -37 26 -43 26 -9 0 -9 -2 0
-8 17 -11 -31 -67 -49 -56 -7 4 -10 4 -6 -1 8 -9 -22 -65 -34 -65 -13 0 -9 12
10 34 l17 21 -23 -19 c-12 -11 -20 -26 -17 -34 6 -15 -11 -42 -27 -42 -5 0 -4
10 2 23 11 21 10 21 -4 3 -9 -10 -13 -23 -10 -27 8 -13 -39 -70 -53 -65 -13 5
-12 -16 3 -62 6 -22 -15 -3 -30 26 -36 70 -27 226 21 352 33 90 50 115 69 99
8 -6 14 -18 14 -25z m4510 10 c0 -8 -4 -12 -10 -9 -5 3 -10 13 -10 21 0 8 5
12 10 9 6 -3 10 -13 10 -21z m507 -56 c-2 -13 -4 -5 -4 17 -1 22 1 32 4 23 2
-10 2 -28 0 -40z m-4271 -10 l29 -33 -32 29 c-31 28 -38 36 -30 36 2 0 16 -15
33 -32z m3783 -50 c1 -20 -3 -40 -9 -43 -6 -4 -10 19 -9 62 1 49 3 61 9 43 4
-14 8 -42 9 -62z m3530 -80 c157 -163 191 -202 191 -219 0 -16 -351 -376 -393
-403 -17 -12 -36 -16 -52 -12 -14 4 -95 75 -180 159 -120 117 -155 158 -155
177 0 36 180 216 198 198 15 -15 16 -28 2 -28 -5 0 -28 -20 -51 -45 -23 -25
-48 -45 -55 -45 -8 0 -14 -5 -14 -11 0 -6 -11 -24 -25 -41 -14 -16 -25 -37
-25 -46 0 -15 261 -275 296 -295 8 -5 22 -6 32 -3 10 3 105 94 211 201 166
166 192 197 181 210 -7 8 -17 12 -23 8 -6 -4 -7 -1 -2 6 11 19 -254 291 -285
291 -9 0 -47 -31 -83 -70 -64 -69 -87 -83 -87 -57 0 22 145 157 169 157 14 0
65 -45 150 -132z m-1320 91 c17 -6 31 -16 31 -21 0 -6 29 -40 64 -77 189 -197
221 -238 211 -270 -3 -11 -74 -85 -157 -165 -105 -102 -157 -146 -174 -146
-12 0 -25 4 -28 8 -3 5 8 7 23 4 16 -2 31 0 35 6 3 5 -6 7 -22 5 l-27 -5 30
21 c22 15 31 17 37 8 6 -9 8 -9 8 0 0 7 59 70 130 140 72 69 130 133 130 142
0 9 -26 43 -57 76 -189 201 -243 255 -255 255 -17 0 -141 -123 -133 -133 3 -4
3 -5 0 -3 -3 2 -34 -26 -68 -62 -34 -36 -74 -78 -90 -94 -25 -27 -26 -31 -13
-57 8 -15 73 -84 145 -153 90 -87 126 -128 116 -132 -8 -3 -14 -2 -12 3 1 4
-62 70 -141 147 -110 107 -142 145 -142 164 0 19 42 67 159 188 87 89 160 162
163 162 3 0 19 -5 37 -11z m978 -145 c61 -64 116 -113 122 -110 16 10 22 -11
7 -24 -12 -9 -25 0 -71 47 -32 32 -89 91 -128 131 -39 39 -65 72 -57 72 8 0
65 -52 127 -116z m-7047 86 c12 -8 -4 -29 -85 -110 -55 -55 -105 -100 -111
-100 -6 0 -21 11 -34 25 l-23 25 22 0 c16 0 54 29 113 85 49 47 92 85 96 85 4
0 14 -5 22 -10z m3560 -33 c0 -103 -162 -240 -261 -220 -47 9 -37 37 19 52 88
23 182 98 211 169 17 41 31 41 31 -1z m281 -37 c-11 -53 -41 -110 -41 -79 0 9
3 19 8 23 4 4 7 11 7 14 2 18 17 88 22 95 12 20 14 -6 4 -53z m2404 40 c10
-11 15 -23 12 -27 -8 -7 -47 25 -47 39 0 14 16 9 35 -12z m-147 -20 c7 -11 11
-20 9 -20 -2 0 -12 9 -22 20 -10 11 -14 20 -9 20 5 0 15 -9 22 -20z m-6652
-49 c0 -11 -5 -17 -13 -14 -10 4 -11 9 -2 19 15 18 15 18 15 -5z m7774 -28 c0
-13 2 -13 17 -2 15 13 15 12 4 -8 -14 -27 -19 -28 -45 -8 -16 12 -17 17 -6 30
14 17 30 11 30 -12z m-7814 -11 c0 -10 -6 -24 -13 -31 -10 -9 -13 -8 -13 7 0
10 5 23 12 30 15 15 14 15 14 -6z m6714 -2 c0 -5 -5 -10 -11 -10 -5 0 -7 5 -4
10 3 6 8 10 11 10 2 0 4 -4 4 -10z m80 0 c0 -5 -2 -10 -4 -10 -3 0 -8 5 -11
10 -3 6 -1 10 4 10 6 0 11 -4 11 -10z m-165 -19 c-3 -6 -11 -11 -17 -11 -6 0
-6 6 2 15 14 17 26 13 15 -4z m-6665 -16 c0 -8 -20 -36 -45 -62 -24 -26 -45
-52 -45 -56 0 -5 -4 -6 -10 -2 -5 3 -7 12 -4 19 5 13 95 116 101 116 2 0 3 -7
3 -15z m6794 6 c6 -10 -22 -37 -29 -29 -8 7 5 38 15 38 5 0 11 -4 14 -9z
m1120 -5 c-5 -13 -34 -31 -34 -22 0 16 14 36 26 36 7 0 11 -6 8 -14z m-1334
-6 c0 -5 -5 -10 -11 -10 -5 0 -7 5 -4 10 3 6 8 10 11 10 2 0 4 -4 4 -10z m116
-18 c-8 -9 -19 -13 -22 -9 -10 9 16 38 28 31 6 -4 4 -13 -6 -22z m1329 18 c-3
-5 -12 -10 -18 -10 -7 0 -6 4 3 10 19 12 23 12 15 0z m-75 -14 c0 -16 -28 -42
-36 -33 -3 3 -3 15 1 26 7 23 35 29 35 7z m-1330 -5 c0 -13 -26 -32 -33 -24
-8 7 11 33 24 33 5 0 9 -4 9 -9z m-6290 -16 c7 -9 11 -18 8 -20 -2 -3 -48 -25
-101 -50 -106 -49 -208 -72 -281 -61 -67 10 -56 26 18 26 79 0 168 27 261 79
82 46 79 45 95 26z m6500 6 c0 -12 -20 -25 -27 -18 -7 7 6 27 18 27 5 0 9 -4
9 -9z m885 -12 c4 -6 -3 -22 -16 -35 l-23 -25 -8 22 c-13 35 29 68 47 38z
m-1065 -14 c0 -8 -2 -15 -4 -15 -2 0 -12 -3 -21 -7 -15 -5 -16 -3 -6 15 13 25
31 29 31 7z m89 -6 c-7 -14 -14 -18 -21 -11 -13 13 -2 32 18 32 12 0 13 -4 3
-21z m1097 -17 c-14 -14 -16 -14 -16 -1 0 20 23 44 29 28 2 -6 -4 -18 -13 -27z
m134 13 c-7 -8 -17 -15 -23 -15 -5 0 -2 9 8 20 21 23 35 19 15 -5z m-1450 0
c-12 -15 -30 -12 -30 6 0 5 10 9 21 9 18 0 19 -2 9 -15z m340 6 c0 -5 -7 -14
-15 -21 -12 -10 -15 -10 -15 2 0 8 3 18 7 21 9 10 23 9 23 -2z m60 -1 c0 -5
-2 -10 -4 -10 -3 0 -8 5 -11 10 -3 6 -1 10 4 10 6 0 11 -4 11 -10z m-365 -31
c-4 -5 -13 -9 -22 -9 -13 0 -13 3 -3 15 13 15 35 11 25 -6z m225 12 c0 -13
-26 -32 -33 -24 -8 7 11 33 24 33 5 0 9 -4 9 -9z m960 -32 c-21 -28 -40 -38
-40 -20 0 16 42 61 51 55 5 -3 0 -19 -11 -35z m134 6 c-23 -18 -34 -19 -34 -4
0 18 33 39 44 28 6 -5 3 -14 -10 -24z m-1191 0 c-5 -16 -33 -21 -33 -7 0 13
22 32 31 26 5 -2 6 -11 2 -19z m1347 17 c0 -14 -39 -46 -47 -39 -3 4 2 16 12
27 19 21 35 26 35 12z m-1135 -23 c-4 -5 -13 -9 -22 -9 -13 0 -13 3 -3 15 13
15 35 11 25 -6z m-309 -18 c-10 -16 -36 -13 -36 3 0 17 21 27 34 16 4 -5 5
-13 2 -19z m221 4 c-4 -8 -11 -15 -17 -15 -14 0 -13 27 3 33 16 6 21 1 14 -18z
m-2902 -273 c7 -282 2 -398 -16 -386 -12 7 -12 674 0 674 5 0 12 -130 16 -288z
m3902 221 c-13 -28 -28 -29 -45 -3 -10 17 -9 25 4 45 l16 25 18 -22 c14 -18
15 -27 7 -45z m113 63 c0 -2 -8 -10 -17 -17 -16 -13 -17 -12 -4 4 13 16 21 21
21 13z m126 -24 c-8 -9 -19 -13 -22 -9 -10 9 16 38 28 31 6 -4 4 -13 -6 -22z
m-1601 8 c-3 -5 -12 -10 -18 -10 -7 0 -6 4 3 10 19 12 23 12 15 0z m1205 2 c0
-11 -22 -32 -32 -32 -5 0 -4 9 2 20 11 20 30 28 30 12z m-3323 -18 c0 -29 -89
-106 -162 -139 -65 -30 -194 -69 -202 -61 -6 5 180 91 190 88 5 -1 6 2 2 7 -3
6 4 15 16 21 17 10 20 9 14 0 -12 -20 47 18 96 61 24 21 44 39 45 39 0 0 1 -7
1 -16z m2393 7 c0 -12 -20 -25 -27 -18 -7 7 6 27 18 27 5 0 9 -4 9 -9z m-100
-15 c0 -18 -17 -29 -30 -21 -8 5 -7 11 1 21 15 18 29 18 29 0z m223 -17 c-17
-17 -37 -1 -22 17 8 10 15 12 23 4 7 -7 7 -13 -1 -21z m61 6 c-9 -14 -19 -23
-22 -20 -5 4 26 45 35 45 2 0 -4 -11 -13 -25z m780 6 c6 -10 -31 -47 -40 -39
-6 7 17 48 28 48 4 0 9 -4 12 -9z m266 -26 c-17 -20 -27 -19 -33 4 -3 13 0 18
8 15 7 -3 17 0 21 7 6 10 9 10 12 1 2 -7 -2 -19 -8 -27z m-1190 15 c0 -5 -9
-14 -20 -20 -16 -8 -20 -8 -20 4 0 13 13 23 33 25 4 1 7 -3 7 -9z m-104 -29
c-8 -13 -36 -15 -36 -3 0 4 5 13 12 20 14 14 34 0 24 -17z m-171 9 c3 -5 1
-10 -4 -10 -6 0 -11 5 -11 10 0 6 2 10 4 10 3 0 8 -4 11 -10z m385 -10 c0 -5
-2 -10 -4 -10 -3 0 -8 5 -11 10 -3 6 -1 10 4 10 6 0 11 -4 11 -10z m990 1 c0
-6 -5 -13 -10 -16 -6 -4 -8 -10 -6 -14 3 -4 -4 -7 -15 -8 -17 -2 -18 0 -3 23
16 24 34 32 34 15z m-8021 -5 c-297 -305 -713 -715 -720 -710 -6 3 -9 11 -7
18 2 7 116 118 253 248 138 130 297 284 355 342 57 58 109 106 114 106 5 0 7
-2 5 -4z m6951 -6 c0 -12 -28 -25 -36 -17 -9 9 6 27 22 27 8 0 14 -5 14 -10z
m951 -9 c19 -17 19 -20 4 -35 -9 -9 -23 -16 -30 -16 -19 0 -29 38 -15 55 16
19 17 19 41 -4z m-1053 -3 c-6 -18 -28 -21 -28 -4 0 9 7 16 16 16 9 0 14 -5
12 -12z m1200 -37 c-15 -25 -28 -27 -28 -6 0 8 5 15 10 15 6 0 10 8 10 17 0
12 3 14 11 6 8 -8 7 -17 -3 -32z m-1168 4 c0 -8 -2 -15 -4 -15 -2 0 -12 -3
-21 -7 -15 -5 -16 -3 -6 15 13 25 31 29 31 7z m93 -10 c-7 -21 -13 -19 -13 6
0 11 4 18 10 14 5 -3 7 -12 3 -20z m815 6 c-7 -11 -16 -17 -20 -14 -10 5 10
33 23 33 5 0 4 -9 -3 -19z m-1058 -5 c0 -3 -4 -8 -10 -11 -5 -3 -10 -1 -10 4
0 6 5 11 10 11 6 0 10 -2 10 -4z m1207 -37 c-29 -23 -34 -16 -12 17 13 20 19
23 25 14 5 -9 0 -20 -13 -31z m-117 22 c0 -5 -7 -12 -16 -15 -14 -5 -15 -4 -4
9 14 17 20 19 20 6z m-900 -10 c0 -12 -28 -22 -34 -12 -3 5 -3 11 1 15 9 9 33
7 33 -3z m920 -5 c0 -2 -8 -10 -17 -17 -16 -13 -17 -12 -4 4 13 16 21 21 21
13z m-1050 -26 c0 -5 -8 -10 -17 -10 -15 0 -16 2 -3 10 19 12 20 12 20 0z
m1210 2 c0 -13 -39 -46 -46 -40 -3 4 3 16 13 27 18 22 33 27 33 13z m-1113 -8
c-3 -3 -12 -4 -19 -1 -8 3 -5 6 6 6 11 1 17 -2 13 -5z m983 1 c0 -2 -10 -10
-22 -16 -21 -11 -22 -11 -9 4 13 16 31 23 31 12z m-1026 -47 c-3 -4 -10 -8
-15 -8 -6 0 -7 5 -4 10 3 6 -1 10 -10 10 -9 0 -13 4 -10 10 4 6 13 5 25 -2 10
-7 16 -16 14 -20z m1046 23 c0 -5 -7 -12 -16 -15 -14 -5 -15 -4 -4 9 14 17 20
19 20 6z m30 -56 c-7 -9 -15 -13 -17 -11 -7 7 7 26 19 26 6 0 6 -6 -2 -15z"/>
<path d="M4775 9196 c-33 -24 -69 -54 -80 -66 -17 -20 94 60 135 97 29 27 2
12 -55 -31z"/>
<path d="M4606 9003 c-6 -14 -5 -15 5 -6 7 7 10 15 7 18 -3 3 -9 -2 -12 -12z"/>
<path d="M9035 9023 c-31 -7 -202 -93 -215 -107 -26 -32 49 -8 116 37 40 26
76 47 81 47 5 0 18 7 29 15 10 8 17 14 14 14 -3 -1 -14 -3 -25 -6z"/>
<path d="M9226 8975 c-31 -29 -38 -31 -30 -10 4 8 2 15 -3 15 -13 0 -93 -84
-93 -98 0 -11 -14 -16 -34 -13 -5 1 -6 -5 -3 -13 3 -8 -1 -20 -9 -26 -8 -7
-14 -19 -14 -26 0 -16 -16 -19 -25 -4 -4 6 -11 8 -16 5 -5 -4 6 -26 23 -50 85
-114 118 -164 118 -175 0 -60 100 126 124 232 20 83 21 162 2 177 -10 8 -19 5
-40 -14z m24 -5 c-6 -11 -13 -20 -16 -20 -2 0 0 9 6 20 6 11 13 20 16 20 2 0
0 -9 -6 -20z"/>
<path d="M9029 8833 c-13 -16 -12 -17 4 -4 9 7 17 15 17 17 0 8 -8 3 -21 -13z"/>
<path d="M7664 8178 l-29 -33 33 29 c30 28 37 36 29 36 -2 0 -16 -15 -33 -32z"/>
<path d="M7589 8103 l-24 -28 28 24 c15 14 27 26 27 28 0 8 -8 1 -31 -24z"/>
<path d="M1695 8560 c-23 -6 -25 -8 -8 -9 37 -2 166 -52 208 -81 47 -33 131
-120 146 -152 10 -23 53 -50 64 -40 12 12 3 35 -37 95 -75 113 -175 178 -293
189 -27 3 -63 2 -80 -2z"/>
<path d="M1920 8546 c0 -3 15 -15 33 -27 23 -17 28 -18 18 -6 -14 18 -51 42
-51 33z"/>
<path d="M1550 8507 c-36 -13 -86 -36 -112 -51 -51 -30 -128 -107 -151 -152
-20 -39 -47 -152 -47 -195 0 -54 29 -160 55 -204 104 -176 338 -244 527 -153
126 61 188 140 223 286 32 131 -6 261 -106 367 -108 114 -252 152 -389 102z
m20 -117 c-10 -7 4 -8 45 -4 33 3 74 0 90 -5 26 -9 24 -10 -20 -6 l-50 5 40
-13 c47 -14 101 -42 110 -58 4 -6 -11 -1 -34 10 -48 25 -52 26 -45 6 5 -12 -4
-15 -47 -15 -50 0 -52 -1 -29 -13 51 -26 35 -110 -29 -153 -49 -32 -97 -27
-107 12 -5 19 -11 23 -26 18 -17 -5 -19 -3 -13 15 10 33 -12 25 -31 -11 -34
-66 -1 -181 73 -254 145 -142 375 -70 412 130 15 81 -15 158 -83 218 -26 23
-28 28 -12 28 11 0 17 -3 14 -6 -4 -3 11 -22 33 -41 28 -25 43 -49 51 -81 9
-36 13 -42 19 -26 6 17 8 15 15 -11 15 -51 8 -128 -14 -172 -27 -51 -100 -126
-118 -119 -7 3 -27 -2 -44 -11 -43 -21 -132 -14 -194 17 -105 50 -180 164
-181 274 0 34 3 77 7 96 l7 35 -19 -40 c-58 -120 21 -312 156 -380 150 -76
339 -22 408 117 49 97 30 237 -45 332 -31 39 -31 40 -4 16 15 -14 41 -52 56
-85 24 -50 29 -73 29 -135 0 -126 -57 -212 -179 -272 -68 -33 -177 -32 -252 3
-136 64 -230 239 -198 367 12 46 45 109 73 141 25 27 114 81 136 81 13 0 13
-1 0 -10z m225 -61 c16 -19 13 -18 -17 5 -21 16 -38 30 -38 33 0 8 36 -16 55
-38z m-325 -199 c0 -5 -4 -10 -10 -10 -5 0 -10 5 -10 10 0 6 5 10 10 10 6 0
10 -4 10 -10z m330 -136 c-8 -8 -23 -20 -34 -25 -13 -7 -9 -1 9 15 34 29 43
33 25 10z"/>
<path d="M1932 8090 c0 -14 2 -19 5 -12 2 6 2 18 0 25 -3 6 -5 1 -5 -13z"/>
<path d="M1241 7870 c25 -47 141 -170 160 -170 6 0 -11 17 -38 38 -26 22 -66
65 -88 98 -52 78 -63 89 -34 34z"/>
<path d="M7885 7138 l-90 -93 93 90 c85 83 97 95 89 95 -1 0 -43 -42 -92 -92z"/>
<path d="M7854 7018 l-19 -23 23 19 c21 18 27 26 19 26 -2 0 -12 -10 -23 -22z"/>
<path d="M7789 6963 l-34 -38 38 34 c34 33 42 41 34 41 -2 0 -19 -17 -38 -37z"/>
<path d="M6680 7799 c0 -5 5 -7 10 -4 6 3 10 8 10 11 0 2 -4 4 -10 4 -5 0 -10
-5 -10 -11z"/>
<path d="M7100 7088 c-31 -33 -34 -62 -13 -106 12 -26 28 -43 48 -50 27 -10
28 -10 11 3 -55 42 -70 105 -35 149 25 32 18 34 -11 4z"/>
<path d="M5196 6495 c4 -8 11 -15 16 -15 6 0 5 6 -2 15 -7 8 -14 15 -16 15 -2
0 -1 -7 2 -15z"/>
<path d="M5160 6490 c0 -5 5 -10 10 -10 6 0 10 5 10 10 0 6 -4 10 -10 10 -5 0
-10 -4 -10 -10z"/>
<path d="M5220 6459 c0 -5 5 -7 10 -4 6 3 10 8 10 11 0 2 -4 4 -10 4 -5 0 -10
-5 -10 -11z"/>
<path d="M5195 6440 c-3 -5 -1 -10 4 -10 6 0 11 5 11 10 0 6 -2 10 -4 10 -3 0
-8 -4 -11 -10z"/>
<path d="M5256 6367 c3 -10 9 -15 12 -12 3 3 0 11 -7 18 -10 9 -11 8 -5 -6z"/>
<path d="M5255 6320 c3 -5 8 -10 11 -10 2 0 4 5 4 10 0 6 -5 10 -11 10 -5 0
-7 -4 -4 -10z"/>
<path d="M5255 6290 c-3 -5 -1 -10 4 -10 6 0 11 5 11 10 0 6 -2 10 -4 10 -3 0
-8 -4 -11 -10z"/>
<path d="M5285 6280 c2 -31 15 -37 15 -7 0 15 -4 27 -8 27 -5 0 -8 -9 -7 -20z"/>
<path d="M8327 6399 c-20 -3 -39 -8 -42 -11 -3 -3 -4 -190 -3 -417 l3 -412 60
30 c34 17 80 47 103 67 54 46 125 145 151 211 43 110 43 269 -2 366 -58 126
-154 186 -270 166z"/>
<path d="M3295 5011 l-30 -6 -3 -228 c-3 -253 -5 -245 65 -206 50 27 127 103
164 160 54 85 52 193 -5 254 -32 33 -36 35 -97 34 -35 -1 -77 -4 -94 -8z"/>
<path d="M2438 4454 c-9 -14 -68 -241 -68 -259 0 -10 5 -13 11 -9 7 4 42 15
78 24 46 12 65 21 63 31 -3 11 -34 101 -71 203 -4 11 -10 16 -13 10z"/>
<path d="M7085 4280 c3 -5 8 -10 11 -10 2 0 4 5 4 10 0 6 -5 10 -11 10 -5 0
-7 -4 -4 -10z"/>
<path d="M6985 4049 c-4 -6 -5 -12 -2 -15 2 -3 7 2 10 11 7 17 1 20 -8 4z"/>
<path d="M4990 3340 c0 -5 5 -10 11 -10 5 0 7 5 4 10 -3 6 -8 10 -11 10 -2 0
-4 -4 -4 -10z"/>
<path d="M4990 3310 c0 -4 9 -10 20 -13 11 -3 20 -2 20 3 0 4 -9 10 -20 13
-11 3 -20 2 -20 -3z"/>
<path d="M5015 3210 c3 -5 8 -10 11 -10 2 0 4 5 4 10 0 6 -5 10 -11 10 -5 0
-7 -4 -4 -10z"/>
<path d="M4948 3203 c7 -3 16 -2 19 1 4 3 -2 6 -13 5 -11 0 -14 -3 -6 -6z"/>
<path d="M4915 3190 c3 -5 8 -10 11 -10 2 0 4 5 4 10 0 6 -5 10 -11 10 -5 0
-7 -4 -4 -10z"/>
<path d="M5000 3186 c14 -8 27 -12 29 -10 6 6 -1 11 -29 18 l-25 7 25 -15z"/>
<path d="M4810 3169 c0 -5 5 -7 10 -4 6 3 10 8 10 11 0 2 -4 4 -10 4 -5 0 -10
-5 -10 -11z"/>
<path d="M4888 3173 c7 -3 16 -2 19 1 4 3 -2 6 -13 5 -11 0 -14 -3 -6 -6z"/>
<path d="M4948 3173 c7 -3 16 -2 19 1 4 3 -2 6 -13 5 -11 0 -14 -3 -6 -6z"/>
<path d="M4948 3143 c7 -3 16 -2 19 1 4 3 -2 6 -13 5 -11 0 -14 -3 -6 -6z"/>
<path d="M3344 3408 l-19 -23 23 19 c21 18 27 26 19 26 -2 0 -12 -10 -23 -22z"/>
<path d="M3294 3358 l-19 -23 23 19 c12 11 22 21 22 23 0 8 -8 2 -26 -19z"/>
<path d="M2925 3389 c-4 -6 -5 -12 -2 -15 2 -3 7 2 10 11 7 17 1 20 -8 4z"/>
<path d="M2840 3305 c-36 -36 -60 -65 -54 -65 11 0 128 119 122 125 -2 3 -33
-25 -68 -60z"/>
<path d="M1994 2588 c-378 -380 -454 -460 -454 -474 0 -5 4 -3 9 4 5 8 152
159 327 336 380 383 480 486 473 486 -3 0 -163 -159 -355 -352z"/>
<path d="M7640 2812 c0 -12 19 -26 26 -19 2 2 -2 10 -11 17 -9 8 -15 8 -15 2z"/>
<path d="M3009 2553 l-24 -28 28 24 c25 23 32 31 24 31 -2 0 -14 -12 -28 -27z"/>
<path d="M2880 2423 l-95 -98 98 95 c90 88 102 100 94 100 -1 0 -45 -44 -97
-97z"/>
<path d="M2754 2298 l-19 -23 23 19 c12 11 22 21 22 23 0 8 -8 2 -26 -19z"/>
<path d="M2615 2162 c-55 -53 -168 -161 -250 -240 -83 -79 -136 -134 -120
-123 31 21 484 460 475 460 -3 1 -50 -43 -105 -97z"/>
<path d="M2620 2088 l-33 -43 38 37 c22 21 36 40 33 43 -3 3 -20 -13 -38 -37z"/>
<path d="M8440 2403 c0 -5 26 -14 58 -21 31 -7 80 -25 108 -42 49 -27 144
-125 144 -147 0 -6 7 -16 15 -23 13 -11 13 -7 0 36 -8 26 -12 50 -10 53 3 2 5
0 5 -6 0 -5 6 -10 14 -10 13 0 13 4 1 27 -22 42 -78 86 -142 111 -60 23 -193
38 -193 22z"/>
<path d="M8348 2369 c-121 -19 -236 -106 -291 -218 -30 -61 -32 -73 -32 -166
1 -90 3 -106 30 -159 38 -76 118 -147 199 -178 47 -18 81 -23 151 -23 79 0 97
3 150 29 194 96 269 330 170 532 -29 60 -86 124 -130 146 -64 33 -172 50 -247
37z m160 -153 c54 -28 117 -87 139 -131 14 -29 13 -29 -14 5 -68 85 -152 132
-242 136 l-56 3 50 -8 c28 -5 69 -18 92 -29 49 -25 68 -47 28 -32 -30 11 -134
13 -160 3 -14 -5 -10 -9 16 -17 28 -9 35 -17 37 -44 5 -47 -42 -92 -96 -92
-31 0 -41 5 -52 25 -11 20 -10 28 4 50 9 14 12 25 7 25 -13 0 -51 -49 -51 -66
0 -7 -4 -15 -9 -19 -6 -3 -6 7 -1 27 15 52 3 44 -16 -11 -19 -52 -38 -51 -23
2 13 44 3 45 -11 2 -7 -21 -10 -62 -8 -92 3 -30 1 -48 -3 -41 -12 18 -11 106
1 148 16 60 65 126 113 154 84 49 161 50 255 2z m118 -171 c43 -91 23 -200
-47 -259 -16 -14 -29 -31 -29 -39 0 -26 -39 -50 -88 -55 -67 -6 -149 20 -205
65 -52 42 -56 58 -5 21 51 -38 113 -58 176 -57 l57 1 -65 13 c-110 21 -170 56
-210 121 -32 51 -17 53 17 2 77 -115 220 -138 321 -53 49 43 75 102 75 177 0
59 -11 85 -62 143 l-26 30 34 -30 c18 -16 44 -52 57 -80z m43 -173 c-14 -44
-53 -100 -86 -126 -25 -18 -25 -18 -14 2 6 12 17 25 24 29 20 13 56 69 62 99
4 16 10 38 13 49 5 18 6 18 10 2 2 -9 -2 -34 -9 -55z m-478 -39 c13 -16 12
-17 -3 -4 -10 7 -18 15 -18 17 0 8 8 3 21 -13z"/>
<path d="M8510 1745 c-14 -8 -20 -14 -14 -15 5 0 19 7 30 15 24 18 16 19 -16
0z"/>
<path d="M8060 1715 c13 -14 26 -25 28 -25 3 0 -5 11 -18 25 -13 14 -26 25
-28 25 -3 0 5 -11 18 -25z"/>
<path d="M8036 1697 c3 -10 9 -15 12 -12 3 3 0 11 -7 18 -10 9 -11 8 -5 -6z"/>
<path d="M8064 1668 c1 -20 56 -76 56 -57 0 8 -13 27 -28 42 -16 15 -28 22
-28 15z"/>
<path d="M4759 2083 c-13 -16 -12 -17 4 -4 16 13 21 21 13 21 -2 0 -10 -8 -17
-17z"/>
<path d="M4587 1359 c8 -16 18 -28 21 -25 7 7 -18 56 -29 56 -4 0 -1 -14 8
-31z"/>
<path d="M8316 9194 c-4 -14 -18 -37 -32 -51 l-25 -25 24 -27 c13 -14 27 -34
30 -43 9 -26 21 -22 34 13 8 19 23 34 42 42 17 6 31 14 31 17 0 3 -14 13 -31
22 -16 10 -35 31 -40 48 -13 37 -25 38 -33 4z"/>
<path d="M7867 9104 c-4 -4 -7 -15 -7 -25 0 -10 -14 -26 -31 -34 -25 -13 -28
-19 -18 -31 6 -8 17 -14 24 -14 6 0 17 -11 23 -25 14 -31 24 -32 37 -3 6 12
19 26 30 32 11 6 22 12 24 13 2 1 -9 15 -25 31 -16 15 -34 36 -39 46 -6 10
-13 14 -18 10z"/>
<path d="M747 8351 c-4 -19 -15 -32 -36 -41 -17 -7 -31 -16 -31 -20 0 -5 16
-18 35 -30 20 -13 35 -30 35 -41 0 -28 29 -23 40 6 5 14 21 30 35 37 33 15 32
21 -10 52 -19 15 -35 36 -35 47 0 30 -27 22 -33 -10z"/>
<path d="M9170 1988 c0 -6 -6 -19 -14 -27 -13 -14 -12 -19 5 -40 l20 -24 20
21 c11 12 25 22 32 22 7 1 2 9 -10 19 -13 11 -23 24 -23 30 0 6 -7 11 -15 11
-8 0 -15 -5 -15 -12z"/>
<path d="M2362 1160 c-6 -16 -22 -35 -36 -42 -33 -15 -33 -23 3 -44 16 -10 32
-26 34 -36 7 -24 28 -23 34 2 3 10 13 22 23 25 10 3 23 12 30 20 9 11 6 17
-18 29 -17 9 -35 29 -40 46 -14 37 -17 38 -30 0z"/>
</g>
</svg>
